<?xml version="1.0" standalone="no"?>
<!DOCTYPE svg PUBLIC "-//W3C//DTD SVG 20010904//EN"
 "http://www.w3.org/TR/2001/REC-SVG-20010904/DTD/svg10.dtd">
<svg version="1.0" xmlns="http://www.w3.org/2000/svg"
 width="650.000000pt" height="433.000000pt" viewBox="0 0 650.000000 433.000000"
 preserveAspectRatio="xMidYMid meet">

<g transform="translate(0.000000,433.000000) scale(0.100000,-0.100000)"
fill="#000000" stroke="none">
<path d="M0 2165 l0 -2165 3250 0 3250 0 0 2165 0 2165 -3250 0 -3250 0 0
-2165z m2353 2038 c10 -56 8 -300 -4 -325 -13 -30 -51 -50 -76 -42 -13 4 -15
3 -5 -4 10 -7 -1 -17 -43 -41 -31 -17 -61 -29 -67 -25 -6 4 -8 3 -5 -3 5 -8
-66 -54 -208 -133 -22 -12 -76 -44 -120 -70 -44 -27 -99 -59 -121 -72 -23 -12
-82 -46 -130 -74 -49 -29 -109 -63 -134 -77 -25 -13 -72 -41 -104 -61 -33 -20
-66 -36 -72 -36 -20 0 -26 57 -22 202 2 88 8 140 17 153 17 26 109 78 123 69
6 -4 8 -3 5 3 -4 6 40 38 101 73 59 35 128 76 155 91 26 16 49 29 52 29 2 0
55 30 117 66 62 37 131 77 153 89 22 12 95 55 163 94 70 42 127 69 135 65 6
-4 8 -3 4 1 -7 8 57 55 74 55 4 0 9 -12 12 -27z m986 -131 c0 -75 -4 -146 -8
-157 -8 -19 -8 -19 -19 2 -8 14 -12 76 -12 168 0 143 0 145 20 135 19 -10 20
-21 19 -148z m-105 122 c13 -5 16 -27 16 -133 0 -102 -3 -128 -14 -128 -9 0
-15 19 -20 60 -7 68 -8 207 -2 207 2 0 11 -3 20 -6z m1380 -55 c-2 -3 12 -14
30 -24 20 -11 36 -28 39 -42 5 -29 3 -29 -60 4 -39 20 -53 33 -53 49 0 17 6
22 24 20 13 0 22 -4 20 -7z m-1450 -5 c13 -5 16 -24 16 -100 0 -52 -3 -94 -7
-94 -30 1 -38 23 -41 110 -4 90 -1 97 32 84z m1296 -376 c344 -198 643 -372
665 -387 22 -15 45 -38 52 -51 10 -19 12 -148 11 -550 l-2 -525 -7 500 c-7
594 -6 558 -20 549 -8 -4 -9 0 -4 15 3 11 2 21 -3 21 -5 0 -26 11 -47 25 -20
14 -35 20 -33 13 2 -7 14 -17 26 -23 29 -13 28 -28 0 -19 -35 10 -50 26 -45
46 4 13 -2 20 -19 24 -13 3 -24 10 -24 15 0 4 -10 13 -22 20 -14 6 -7 -3 15
-24 21 -19 34 -38 29 -41 -5 -3 -12 -19 -15 -36 -4 -16 -11 -30 -17 -30 -9 0
-12 11 -14 58 -1 9 -5 20 -11 24 -13 10 -35 10 -33 1 0 -5 -2 -15 -6 -24 -6
-14 -12 -14 -30 -6 -22 10 -22 13 -7 25 14 11 13 11 -7 2 l-24 -12 21 -19 c25
-23 27 -39 6 -39 -9 0 -12 -6 -9 -15 4 -10 14 -13 29 -9 13 3 26 1 29 -5 4 -6
12 -11 17 -11 6 0 7 4 4 10 -3 6 1 7 10 4 14 -6 14 -8 -2 -21 -10 -8 -12 -12
-5 -8 16 8 65 -22 57 -36 -4 -5 -11 -7 -16 -4 -5 4 -9 -10 -9 -29 0 -37 -16
-57 -26 -32 -3 9 -10 14 -14 11 -5 -3 -22 6 -38 20 -17 14 -41 26 -56 27 -14
1 -23 4 -21 6 1 2 -3 15 -10 29 -7 14 -12 34 -10 44 2 11 0 19 -6 19 -5 0 -9
5 -9 11 0 5 5 7 12 3 8 -5 9 -2 5 9 -3 9 -2 19 4 23 6 3 8 12 5 20 -3 9 4 16
19 20 27 7 32 18 13 30 -6 4 -16 0 -22 -8 -6 -8 -24 -18 -41 -22 -22 -5 -26
-4 -15 4 13 8 13 10 -2 10 -25 0 -22 -18 5 -42 12 -11 16 -16 8 -13 -10 6 -11
2 -6 -16 7 -23 7 -24 -9 -4 -15 20 -15 20 -16 0 0 -11 7 -30 15 -42 13 -18 13
-22 0 -27 -8 -3 -21 4 -29 16 -8 11 -19 17 -24 14 -6 -3 -15 6 -20 21 -6 16
-11 22 -11 16 -1 -19 -26 -16 -45 6 -9 10 -25 17 -34 15 -11 -3 -24 6 -37 25
-21 33 -30 34 -57 9 -20 -20 -50 -26 -31 -7 6 6 9 19 6 28 -3 12 -1 11 11 -3
16 -19 16 -19 14 5 -2 21 -6 24 -30 21 -19 -3 -30 1 -34 12 -3 9 -9 14 -13 12
-4 -3 -6 12 -5 32 2 20 0 27 -2 15 -3 -13 -10 -23 -15 -23 -11 0 -2 38 13 58
7 8 7 12 0 12 -6 0 -13 -6 -16 -12 -4 -7 -4 -3 -2 10 2 13 0 19 -6 16 -5 -3
-7 -16 -4 -29 3 -12 3 -25 0 -28 -11 -11 -44 17 -45 38 0 14 -2 16 -6 5 -15
-36 -53 -54 -53 -24 0 17 -38 53 -57 54 -6 0 -13 -9 -15 -21 l-3 -21 -27 22
c-15 11 -33 20 -40 18 -7 -1 -31 2 -53 6 -22 4 -57 10 -78 12 -45 4 -57 10
-57 30 0 8 -4 14 -10 14 -5 0 -10 -5 -10 -11 0 -5 -4 -8 -10 -4 -5 3 -7 12 -3
20 3 8 0 15 -6 15 -6 0 -11 -4 -11 -10 0 -5 -10 -10 -21 -10 -17 0 -20 5 -17
25 6 28 -18 36 -29 9 -3 -8 -12 -13 -19 -10 -8 3 -14 1 -14 -4 0 -6 7 -10 15
-10 8 0 15 -9 15 -20 0 -11 -4 -20 -9 -20 -11 0 -35 29 -37 44 0 6 -2 16 -2
23 -1 7 -9 10 -17 7 -13 -5 -15 21 -15 205 0 194 1 211 18 212 10 0 12 3 4 6
-6 2 -9 9 -6 15 3 5 13 7 22 3 9 -3 298 -168 642 -367z m-1052 354 c9 -7 12
-41 10 -138 -3 -107 -6 -129 -18 -129 -12 0 -15 23 -18 138 -1 75 1 137 5 137
4 0 14 -4 21 -8z m-324 -58 c12 -4 16 -20 16 -56 0 -42 -3 -49 -17 -46 -14 2
-19 15 -21 56 -3 55 -3 56 22 46z m-1604 -49 c1 6 6 -1 11 -14 12 -30 -14 -85
-54 -115 -22 -16 -29 -17 -42 -6 -19 16 -19 43 0 84 18 38 66 71 77 53 4 -7 8
-7 8 -2z m3173 -69 c17 -11 24 -56 9 -56 -4 0 -29 13 -55 30 -36 23 -47 35
-47 56 l0 26 38 -23 c20 -13 45 -28 55 -33z m-1175 36 c9 -6 12 -36 10 -112
-3 -99 -4 -103 -20 -86 -15 14 -18 35 -18 112 0 93 3 101 28 86z m-722 -108
c32 -43 52 -78 48 -85 -4 -7 -3 -9 4 -5 12 7 63 -62 90 -123 l18 -39 22 49
c26 56 51 73 93 64 33 -7 55 -42 74 -115 11 -44 13 -46 146 -123 153 -88 141
-69 154 -244 l7 -93 224 -162 c123 -90 239 -172 257 -184 30 -19 32 -23 30
-74 -2 -32 -9 -60 -18 -69 -13 -13 -14 -11 -5 19 6 19 10 36 10 37 0 12 -41
-1 -55 -17 -10 -11 -13 -20 -7 -20 7 0 12 -6 12 -14 0 -8 6 -16 13 -19 9 -3 6
-22 -12 -78 -13 -41 -25 -81 -26 -89 -1 -8 -6 -24 -11 -35 -6 -11 -17 -40 -24
-63 -12 -39 -22 -48 -86 -85 -40 -23 -75 -47 -78 -53 -3 -7 99 -72 240 -153
234 -134 247 -140 288 -135 46 7 83 -8 218 -88 86 -51 96 -63 74 -86 -20 -23
-20 -32 0 -32 9 0 30 -10 47 -22 24 -18 43 -22 82 -20 46 2 60 -3 170 -66 113
-65 120 -70 119 -99 -2 -28 6 -34 135 -108 192 -110 191 -110 191 -153 0 -36
2 -38 101 -95 55 -32 103 -65 106 -73 7 -20 -29 -54 -93 -88 -27 -14 -76 -41
-109 -61 -33 -19 -82 -47 -110 -61 -27 -15 -52 -30 -55 -34 -3 -3 -30 -20 -60
-37 -30 -16 -84 -47 -120 -68 -89 -53 -124 -52 -214 4 -60 37 -72 41 -93 32
-20 -9 -22 -13 -11 -25 7 -8 15 -12 16 -11 2 2 26 -10 53 -27 52 -31 72 -57
61 -75 -6 -9 -279 -173 -307 -184 -6 -2 -53 -29 -105 -60 -361 -215 -425 -249
-459 -249 -24 0 -169 71 -206 100 -5 5 -68 42 -140 82 -71 41 -149 86 -172
101 -24 15 -47 27 -53 27 -5 0 -10 3 -10 8 0 14 -91 44 -119 39 -15 -3 -51
-20 -79 -38 l-51 -32 15 -28 c44 -85 -61 -169 -211 -169 -78 0 -166 30 -195
67 -24 31 -27 95 -5 113 8 7 15 16 15 20 0 3 -38 29 -85 56 -46 27 -85 52 -85
56 0 7 77 -32 149 -75 32 -19 35 -19 88 -3 89 28 181 25 263 -10 35 -15 37
-14 100 21 43 24 77 37 101 37 32 -1 110 -35 149 -67 8 -6 40 -25 70 -42 30
-16 115 -64 188 -106 73 -43 137 -77 142 -77 6 0 10 -3 10 -8 0 -4 27 -20 60
-35 l60 -29 66 32 c58 27 113 59 189 108 11 6 27 15 35 19 8 4 53 29 100 57
47 27 166 96 265 153 99 57 187 111 195 119 17 18 18 17 -78 79 l-53 35 -37
-19 c-20 -11 -170 -96 -332 -191 l-295 -171 -55 3 c-51 4 -83 20 -435 225
-376 218 -618 358 -1595 923 -278 160 -522 303 -542 316 -38 24 -38 25 -38 92
0 85 -5 80 205 200 150 85 423 242 718 412 70 41 127 79 127 86 0 24 -20 25
-49 5 -16 -12 -32 -21 -35 -21 -4 0 -19 -8 -34 -18 -95 -65 -172 -102 -172
-83 0 6 4 11 10 11 5 0 31 13 57 28 27 16 61 32 76 36 15 3 26 10 23 15 -3 4
11 16 32 25 20 9 47 25 60 34 l23 18 -76 306 c-41 168 -75 312 -75 320 1 24
31 -25 42 -69 14 -57 30 -69 62 -48 14 10 26 20 26 24 0 9 -52 85 -64 93 -6 4
-7 10 -3 14 10 10 -140 160 -175 175 -22 9 -31 9 -43 -1 -18 -15 -20 1 -3 18
17 17 54 15 83 -4 28 -18 -14 -40 473 240 111 65 207 114 212 111 30 -18 -18
-54 -231 -175 -252 -143 -389 -226 -389 -236 0 -7 11 -21 25 -32 14 -11 25
-25 25 -31 0 -6 6 -11 14 -11 11 0 63 -58 109 -124 13 -18 29 -10 278 134 145
84 265 154 267 155 1 1 -4 35 -12 76 -9 40 -14 74 -12 76 9 10 29 -32 34 -72
5 -45 5 -45 43 -45 l39 0 -31 68 c-40 84 -35 76 -93 161 -57 84 -88 110 -111
91 -10 -8 -15 -9 -15 -2 0 16 30 30 52 24 10 -2 44 -38 74 -78z m2116 -86 c-6
-6 -15 -8 -19 -4 -4 4 -1 11 7 16 19 12 27 3 12 -12z m-1303 -46 c6 -11 7 -32
3 -47 -7 -26 -9 -27 -25 -11 -21 22 -23 76 -2 76 8 0 19 -8 24 -18z m395 -126
c44 -19 51 -32 16 -31 -21 0 -26 3 -19 12 8 8 4 10 -12 6 -14 -4 -20 -2 -16 5
4 5 1 13 -5 15 -7 3 -9 6 -5 6 4 1 23 -5 41 -13z m-79 -55 c-6 -5 -25 10 -25
20 0 5 6 4 14 -3 8 -7 12 -15 11 -17z m97 -7 c34 -20 77 -44 93 -54 28 -15 30
-22 33 -78 3 -66 2 -68 -29 -52 -15 8 -19 7 -19 -4 0 -13 -4 -13 -32 -1 -18 8
-32 19 -31 24 2 6 -3 8 -11 5 -7 -3 -20 1 -28 8 -7 7 -23 18 -33 24 -17 9 -21
24 -23 88 -2 44 1 76 6 76 6 0 39 -16 74 -36z m122 -28 c-3 -8 -12 -12 -21 -9
-12 5 -12 7 -1 14 20 13 28 11 22 -5z m33 -28 c-3 -8 -6 -5 -6 6 -1 11 2 17 5
13 3 -3 4 -12 1 -19z m273 -8 c0 -5 -4 -10 -10 -10 -5 0 -10 5 -10 10 0 6 5
10 10 10 6 0 10 -4 10 -10z m-95 -37 c24 -36 45 -118 45 -176 0 -50 -17 -94
-45 -117 -15 -12 -19 -12 -31 4 -11 16 -10 23 8 48 24 35 35 107 20 134 -8 15
-10 11 -7 -20 6 -58 -17 -105 -51 -106 -20 0 -25 32 -9 56 16 25 20 91 6 113
-6 8 -7 -3 -4 -30 3 -30 0 -50 -11 -64 -14 -19 -16 -19 -31 -4 -12 12 -15 24
-9 40 4 13 8 26 7 29 0 3 -4 22 -7 43 -7 40 2 47 28 21 9 -8 16 -11 16 -5 0 5
-5 13 -11 17 -8 5 -6 10 5 16 9 5 21 6 26 3 6 -3 10 1 10 9 0 25 26 19 45 -11z
m-765 -3 c0 -5 -2 -10 -4 -10 -3 0 -8 5 -11 10 -3 6 -1 10 4 10 6 0 11 -4 11
-10z m640 -75 c0 -14 -4 -25 -8 -25 -17 0 -44 40 -38 55 9 25 46 0 46 -30z
m770 -30 c0 -16 -6 -25 -15 -25 -8 0 -15 5 -15 10 0 6 5 10 10 10 6 0 10 7 10
15 0 8 2 15 5 15 3 0 5 -11 5 -25z m-1055 -9 c10 -15 23 -22 33 -19 12 3 23
-5 32 -21 9 -18 19 -24 31 -21 11 4 24 -4 37 -20 12 -15 26 -23 35 -19 22 8
47 -34 47 -79 0 -47 -22 -58 -54 -28 -12 11 -29 21 -37 21 -21 0 -39 20 -39
45 0 15 -3 17 -9 7 -12 -19 -43 -11 -56 13 -5 11 -17 19 -27 17 -36 -7 -65 87
-36 116 17 17 26 15 43 -12z m196 8 c12 -14 11 -16 -5 -13 -11 2 -21 10 -24
17 -5 17 13 15 29 -4z m569 -38 c0 -6 -7 -1 -15 10 -8 10 -15 23 -15 28 0 6 7
1 15 -10 8 -10 15 -23 15 -28z m471 -13 c-3 -28 -6 -33 -10 -18 -3 11 -10 21
-16 22 -5 1 -17 3 -25 6 -8 2 -12 2 -7 0 4 -3 7 -12 6 -21 0 -12 -2 -13 -6 -3
-5 11 -7 11 -14 0 -7 -11 -9 -9 -9 5 0 19 -1 19 -13 2 -12 -16 -14 -16 -14 -3
0 9 7 19 14 21 8 3 11 11 7 17 -10 16 48 2 58 -14 5 -8 10 -4 14 10 10 36 21
18 15 -24z m-3641 3 c0 -16 -18 -31 -27 -22 -8 8 5 36 17 36 5 0 10 -6 10 -14z
m3255 -26 c3 -6 -1 -7 -9 -4 -18 7 -21 14 -7 14 6 0 13 -4 16 -10z m-3332 -35
c-3 -8 -9 -15 -14 -15 -10 0 -12 24 -3 33 11 11 24 -3 17 -18z m87 11 c0 -16
-18 -31 -27 -22 -8 8 5 36 17 36 5 0 10 -6 10 -14z m3580 -66 c0 -38 -4 -71
-8 -74 -5 -3 -19 3 -33 12 -18 12 -26 28 -28 56 -2 33 2 42 26 61 15 13 31 21
35 18 5 -2 8 -35 8 -73z m-3620 41 c0 -5 -7 -14 -15 -21 -13 -10 -15 -9 -15 9
0 12 6 21 15 21 8 0 15 -4 15 -9z m-120 -15 c0 -16 -18 -31 -27 -22 -8 8 5 36
17 36 5 0 10 -6 10 -14z m70 -10 c0 -7 -7 -19 -15 -26 -12 -10 -15 -9 -15 7 0
11 3 23 7 26 11 12 23 8 23 -7z m2508 -36 c6 0 15 -6 19 -13 4 -7 25 -21 45
-30 44 -21 60 -59 35 -85 -15 -14 -17 -14 -23 1 -3 9 -12 17 -19 17 -7 0 -18
7 -25 15 -6 8 -15 14 -18 12 -13 -3 -64 37 -72 57 -4 12 -3 29 2 39 9 17 11
17 27 3 10 -9 23 -16 29 -16z m283 -1 c5 -11 15 -17 20 -13 12 7 49 -24 49
-40 0 -7 12 -12 27 -11 17 0 31 -7 38 -20 5 -11 17 -19 27 -17 38 7 66 -91 33
-118 -12 -10 -19 -7 -38 14 -13 14 -31 26 -39 26 -20 0 -38 20 -39 45 0 11 -3
14 -6 8 -7 -20 -41 -15 -55 7 -7 11 -20 20 -30 20 -23 0 -48 38 -48 75 0 53
37 68 61 24z m-2841 1 c0 -11 -7 -20 -15 -20 -15 0 -21 21 -8 33 12 13 23 7
23 -13z m-40 -19 c0 -5 -7 -14 -15 -21 -13 -10 -15 -9 -15 9 0 12 6 21 15 21
8 0 15 -4 15 -9z m673 -32 c-8 -17 -23 -33 -31 -37 -18 -7 -72 -62 -72 -74 0
-4 5 -10 10 -13 6 -4 8 -11 5 -16 -9 -13 23 1 76 33 47 29 69 35 69 19 0 -10
-160 -104 -177 -104 -7 0 -13 -6 -13 -14 0 -7 -6 -13 -12 -13 -10 0 -9 -3 1
-9 10 -7 11 -13 2 -30 -7 -11 -16 -21 -20 -21 -5 0 -7 -9 -4 -20 5 -21 -11
-28 -22 -10 -10 17 -25 11 -37 -15 -10 -22 -12 -23 -23 -8 -7 10 -19 14 -29
10 -14 -5 -17 -2 -16 16 3 35 1 47 -10 47 -5 0 -10 -10 -10 -22 0 -13 -4 -18
-8 -13 -10 15 -39 12 -54 -5 -11 -12 -11 -12 4 -1 16 12 16 10 8 -21 -6 -18
-10 -34 -10 -35 0 -9 -24 -1 -36 12 -13 13 -12 18 10 40 26 26 46 80 38 104
-3 9 0 11 7 6 8 -4 26 9 47 34 22 25 40 38 49 34 9 -3 15 1 15 9 0 8 9 34 21
58 16 33 23 40 31 29 7 -10 8 -8 3 7 -3 13 1 26 11 35 15 12 16 12 10 -8 -6
-19 -4 -21 31 -18 21 2 43 11 50 21 8 11 20 14 37 10 14 -3 28 -2 31 4 3 5 12
10 20 10 11 0 11 -6 -2 -31z m-723 1 c0 -11 -7 -20 -15 -20 -15 0 -21 21 -8
33 12 13 23 7 23 -13z m215 -72 c-6 -16 -4 -20 8 -15 12 5 14 -4 12 -48 -1
-30 -8 -62 -16 -72 -9 -11 -10 -14 -1 -9 7 4 12 2 12 -8 0 -8 -5 -18 -11 -22
-6 -3 -18 -23 -27 -43 l-16 -36 -8 50 c-9 51 -24 78 -38 70 -5 -3 -6 4 -3 15
3 11 9 20 13 20 5 0 6 8 4 18 -3 10 8 31 25 51 17 19 31 38 31 43 0 4 5 8 11
8 6 0 8 -9 4 -22z m3012 -54 c3 -8 12 -13 19 -10 7 3 22 -6 32 -19 10 -13 29
-25 42 -27 14 -1 29 -12 35 -23 6 -13 17 -19 29 -17 27 6 46 -24 46 -70 0 -48
-24 -62 -51 -30 -9 12 -26 22 -36 22 -25 0 -43 19 -44 45 0 11 -3 14 -6 8 -7
-20 -30 -15 -50 10 -10 12 -25 21 -35 19 -36 -7 -65 87 -36 116 13 13 46 -1
55 -24z m-3119 -46 c-24 -64 -30 -72 -22 -30 4 21 3 32 -5 32 -7 0 -6 9 5 25
9 14 22 25 29 25 10 0 8 -13 -7 -52z m265 5 c4 -3 -2 -12 -12 -20 -11 -7 -22
-27 -26 -44 -4 -17 -9 -28 -12 -25 -8 7 26 96 36 96 4 0 11 -3 14 -7z m2746
-60 c32 -19 39 -41 19 -61 -7 -7 -8 -12 -2 -12 6 0 16 12 22 26 11 23 13 24
29 9 9 -9 26 -20 38 -25 24 -9 40 -58 25 -74 -9 -9 -66 10 -76 26 -3 5 2 18
12 29 15 16 15 19 2 19 -9 0 -18 -9 -21 -20 -6 -25 -18 -25 -43 -2 -10 10 -26
21 -35 24 -25 10 -33 78 -9 78 5 0 22 -8 39 -17z m398 -66 c10 -12 26 -21 35
-19 9 2 24 -8 33 -22 9 -14 23 -22 30 -19 16 5 45 -19 45 -37 0 -7 8 -9 19 -5
32 10 52 -21 49 -74 -4 -54 -30 -69 -49 -28 -7 16 -17 23 -29 20 -10 -3 -25 5
-36 19 -11 14 -25 23 -31 21 -6 -2 -22 6 -35 19 -12 12 -27 23 -33 24 -5 0
-15 2 -22 2 -14 2 -34 57 -28 77 3 8 7 22 10 30 6 21 21 19 42 -8z m-3397 -6
c5 -11 10 -26 10 -33 -1 -7 -8 0 -16 16 -13 22 -18 26 -25 15 -5 -8 -9 -9 -9
-3 0 28 25 31 40 5z m-166 -34 c-7 -20 -34 -23 -34 -4 0 19 22 39 32 29 5 -5
6 -16 2 -25z m464 -12 c0 -41 -18 -43 -29 -2 -7 27 -3 37 17 37 7 0 12 -14 12
-35z m-388 6 c0 -5 -9 -7 -20 -4 -11 3 -20 7 -20 9 0 2 9 4 20 4 11 0 20 -4
20 -9z m30 -41 c-12 -23 -6 -40 16 -40 8 0 14 -6 14 -12 1 -8 6 -6 14 5 8 10
11 27 8 39 -4 18 -3 19 18 8 20 -11 21 -14 9 -24 -9 -6 -14 -24 -12 -42 3 -38
-22 -67 -39 -43 -8 12 -9 12 -5 -1 2 -8 -5 -23 -15 -34 -12 -13 -16 -27 -12
-40 6 -20 6 -20 -13 -3 -25 22 -51 22 -88 -3 -16 -11 -36 -20 -42 -20 -24 0
-13 16 25 38 38 21 87 66 65 60 -6 -2 -18 6 -26 16 -16 21 -68 29 -60 10 2 -7
0 -15 -6 -19 -15 -9 -14 58 1 73 7 7 22 12 35 12 12 0 26 7 31 16 6 11 17 15
31 11 11 -3 21 -1 21 5 0 5 4 7 9 4 5 -3 12 2 16 12 5 11 9 13 12 5 2 -7 -1
-21 -7 -33z m580 19 c0 -5 4 -8 9 -4 14 8 23 -12 16 -36 -5 -13 -12 -18 -22
-14 -9 3 -25 -3 -36 -12 -20 -17 -20 -17 -15 5 8 29 2 28 -63 -8 -57 -31 -73
-36 -67 -20 4 12 149 100 166 100 6 0 12 -5 12 -11z m-260 -15 c0 -9 8 -23 18
-30 14 -10 15 -15 5 -25 -7 -7 -13 -26 -13 -41 0 -38 -27 -101 -40 -93 -5 3
-10 18 -10 33 0 39 -11 73 -21 66 -5 -3 -9 1 -10 8 0 7 -4 3 -9 -9 -11 -27
-25 -30 -34 -7 -6 15 15 65 37 89 6 6 21 9 34 7 13 -2 23 1 23 7 0 6 5 11 10
11 6 0 10 -7 10 -16z m2604 -173 c122 -71 260 -150 308 -177 l88 -49 0 -192
c0 -194 -7 -243 -35 -243 -13 0 -152 78 -500 280 -49 28 -95 59 -102 68 -9 13
-12 76 -13 236 0 201 1 218 17 212 9 -4 116 -65 237 -135z m-159 129 c3 -5 2
-10 -4 -10 -5 0 -13 5 -16 10 -3 6 -2 10 4 10 5 0 13 -4 16 -10z m-2385 -44
c0 -7 -7 -19 -15 -26 -12 -10 -15 -9 -15 7 0 11 3 23 7 26 11 12 23 8 23 -7z
m3144 -21 c18 -19 37 -35 43 -35 18 0 61 -57 68 -90 14 -62 -38 -80 -85 -30
-15 17 -35 30 -43 30 -28 0 -41 31 -42 96 -1 76 11 82 59 29z m-3391 -87 c22
1 22 3 -14 -76 -18 -37 -35 -78 -40 -92 -5 -17 -7 -5 -6 39 1 43 -3 66 -11 69
-7 2 -12 12 -12 22 0 26 29 53 49 44 9 -4 24 -6 34 -6z m467 -7 c0 -5 -21 -20
-47 -34 -27 -13 -75 -41 -108 -61 -33 -20 -66 -36 -72 -36 -7 0 -13 -5 -13
-11 0 -5 -4 -7 -10 -4 -5 3 -10 2 -10 -3 0 -5 -18 -17 -40 -28 -22 -10 -40
-23 -40 -27 0 -5 -5 -5 -11 -1 -11 6 43 41 236 150 126 72 115 67 115 55z
m-560 -115 c0 -18 -16 -29 -30 -21 -13 8 -1 35 16 35 8 0 14 -6 14 -14z m195
-96 c3 -5 2 -10 -4 -10 -5 0 -13 5 -16 10 -3 6 -2 10 4 10 5 0 13 -4 16 -10z
m-89 -55 c-38 -25 -75 -45 -83 -45 -7 0 -13 -4 -13 -10 0 -5 -6 -10 -14 -10
-7 0 -19 -7 -26 -15 -7 -8 -16 -12 -22 -9 -7 5 73 64 87 64 2 0 30 16 62 35
84 50 91 43 9 -10z m3359 25 c3 -6 -1 -7 -9 -4 -18 7 -21 14 -7 14 6 0 13 -4
16 -10z m65 -86 c0 -2 -9 0 -20 6 -11 6 -20 13 -20 16 0 2 9 0 20 -6 11 -6 20
-13 20 -16z m-3595 -45 c-4 -5 -11 -9 -16 -9 -6 0 -59 -28 -117 -62 -59 -33
-122 -70 -141 -80 -76 -43 -141 -88 -141 -98 0 -6 13 -19 30 -28 16 -9 30 -20
30 -24 0 -5 5 -8 12 -8 6 0 44 -20 84 -45 39 -25 74 -45 77 -45 19 0 253 -150
255 -164 4 -19 -21 -47 -50 -59 -29 -11 -20 7 12 25 17 9 30 21 30 27 0 10
-47 40 -225 144 -66 38 -142 83 -170 99 -27 16 -60 34 -72 40 -12 6 -24 17
-28 26 -10 27 -10 27 300 208 55 32 103 58 108 56 4 -1 7 3 7 9 0 5 5 7 10 4
6 -4 8 -11 5 -16z m3610 1 c3 -6 -1 -7 -9 -4 -18 7 -21 14 -7 14 6 0 13 -4 16
-10z m-65 -46 c0 -2 -13 2 -30 11 -16 9 -30 18 -30 21 0 2 14 -2 30 -11 17 -9
30 -18 30 -21z m55 8 c-3 -3 -11 0 -18 7 -9 10 -8 11 6 5 10 -3 15 -9 12 -12z
m40 -22 c3 -6 -1 -7 -9 -4 -18 7 -21 14 -7 14 6 0 13 -4 16 -10z m-95 -25 c17
-9 30 -18 30 -21 0 -4 -59 23 -69 32 -10 9 13 3 39 -11z m-24 -31 c18 -14 18
-14 -6 -3 -31 14 -36 19 -24 19 6 0 19 -7 30 -16z m49 -24 c3 -6 -1 -7 -9 -4
-18 7 -21 14 -7 14 6 0 13 -4 16 -10z m-125 -90 c0 -5 -2 -10 -4 -10 -3 0 -8
5 -11 10 -3 6 -1 10 4 10 6 0 11 -4 11 -10z m80 -50 c0 -5 -2 -10 -4 -10 -3 0
-8 5 -11 10 -3 6 -1 10 4 10 6 0 11 -4 11 -10z m-45 -20 c3 -5 1 -10 -4 -10
-6 0 -11 5 -11 10 0 6 2 10 4 10 3 0 8 -4 11 -10z m95 -60 c0 -5 -2 -10 -4
-10 -3 0 -8 5 -11 10 -3 6 -1 10 4 10 6 0 11 -4 11 -10z m90 -50 c0 -5 -2 -10
-4 -10 -3 0 -8 5 -11 10 -3 6 -1 10 4 10 6 0 11 -4 11 -10z m-3670 -230 c0 -5
-8 -7 -17 -3 -10 3 -15 2 -11 -2 5 -5 -32 -31 -81 -59 -113 -66 -124 -75 -110
-92 6 -7 32 -25 57 -39 l46 -26 52 26 c36 18 51 31 49 43 -2 9 -6 39 -9 66 -7
58 -9 59 112 -21 134 -89 126 -86 178 -60 38 19 43 25 38 48 -10 50 73 77 136
44 37 -19 38 -39 5 -61 -18 -12 -39 -15 -69 -12 -32 4 -49 1 -67 -13 -13 -10
-29 -19 -36 -19 -24 0 -23 -19 2 -44 29 -29 33 -80 9 -114 -8 -12 -34 -32 -57
-45 -35 -19 -58 -22 -142 -22 -85 0 -106 3 -142 23 -62 33 -89 85 -69 132 4
11 -8 23 -43 42 -97 55 -93 75 30 143 50 28 95 56 101 63 12 14 38 16 38 2z
m630 -380 c-24 -15 -37 -11 -16 5 11 8 22 12 25 9 3 -3 -1 -9 -9 -14z m-55
-29 c-9 -16 -65 -43 -65 -32 0 9 62 50 69 45 1 -1 0 -8 -4 -13z m-296 -42 c48
-29 51 -29 80 -15 16 9 35 16 40 16 7 0 9 -35 7 -95 -4 -91 -3 -95 18 -95 11
0 68 27 126 60 57 33 108 61 114 63 5 2 4 12 -3 24 -27 52 -7 56 43 9 93 -87
-7 -191 -184 -191 -136 1 -239 74 -210 150 11 28 0 55 -22 55 -5 0 -26 11 -46
25 -52 36 -22 31 37 -6z m361 2 c0 -21 -13 -41 -26 -41 -17 0 -18 22 -2 38 14
14 28 16 28 3z m-166 -26 c-18 -14 -44 -20 -44 -10 0 7 54 34 59 29 3 -2 -4
-11 -15 -19z m96 -9 c0 -16 -14 -36 -26 -36 -16 0 -16 2 -8 24 5 14 34 24 34
12z m-93 -31 c0 -14 -26 -30 -35 -21 -2 3 -2 12 1 21 8 19 34 20 34 0z m913
-130 l21 -23 -27 -21 c-21 -16 -40 -21 -74 -20 -60 3 -144 -36 -137 -63 6 -23
0 -23 -41 2 -18 11 -35 20 -37 20 -3 0 -5 -15 -5 -34 0 -37 -34 -70 -97 -95
-35 -14 -35 -34 0 -29 12 2 58 24 102 50 79 46 99 47 76 5 -30 -56 -125 -91
-230 -85 -141 9 -226 80 -187 158 14 29 13 31 -7 44 -79 47 -91 56 -84 56 12
0 97 -42 102 -51 3 -4 44 14 91 42 l85 50 57 -30 c31 -16 80 -41 108 -54 l51
-25 39 22 c30 17 39 28 39 49 0 61 107 84 155 32z m-980 -50 c0 -2 -32 -23
-70 -46 -57 -34 -69 -45 -65 -61 5 -12 -1 -25 -17 -38 -48 -41 -159 -12 -144
37 8 24 32 32 101 33 39 1 64 9 115 40 63 37 80 45 80 35z"/>
<path d="M2213 3995 c-12 -8 -27 -13 -35 -12 -7 2 -9 2 -5 -1 5 -2 -10 -15
-32 -29 -23 -13 -46 -21 -53 -17 -6 4 -8 3 -5 -3 9 -14 -61 -56 -75 -47 -6 4
-8 3 -5 -2 8 -13 -90 -67 -105 -58 -7 5 -8 3 -3 -6 6 -10 4 -12 -9 -7 -9 4
-15 3 -12 -2 8 -12 -114 -83 -130 -77 -8 3 -13 0 -11 -6 1 -6 -31 -30 -70 -52
-62 -35 -73 -45 -73 -68 0 -28 13 -37 25 -18 4 6 11 8 16 5 5 -4 9 -2 9 2 0 5
14 17 31 27 23 14 34 15 42 7 9 -9 7 -10 -7 -5 -12 5 -17 4 -13 -3 4 -6 -11
-18 -33 -28 -55 -25 -79 -50 -73 -75 3 -11 8 -20 12 -19 3 0 47 25 96 54 132
80 185 106 196 100 5 -4 8 -1 7 5 -4 14 199 133 212 125 6 -3 18 -1 27 5 15 9
14 10 -7 5 -23 -5 -23 -4 -6 7 51 35 58 44 52 66 -6 19 -10 20 -34 9 -15 -6
-35 -19 -46 -29 -10 -9 -25 -14 -34 -11 -9 4 -13 2 -9 -4 4 -7 -15 -20 -48
-34 -30 -12 -55 -26 -55 -31 0 -4 -24 -20 -52 -34 -29 -15 -55 -31 -56 -35 -2
-5 -8 -6 -14 -3 -6 4 -13 3 -17 -2 -10 -15 -69 -54 -81 -54 -20 0 -10 17 18
29 15 8 34 17 42 22 8 5 38 21 65 34 28 14 46 25 40 25 -5 1 6 9 25 19 37 19
71 38 158 90 29 17 55 31 58 31 3 0 22 11 42 25 39 27 58 32 46 13 -4 -7 -3
-8 5 -4 6 4 9 11 6 16 -3 4 2 10 10 14 18 7 20 56 2 56 -7 0 -22 -7 -34 -15z"/>
<path d="M2105 3950 c-3 -6 1 -7 9 -4 18 7 21 14 7 14 -6 0 -13 -4 -16 -10z"/>
<path d="M2331 3904 c0 -11 3 -14 6 -6 3 7 2 16 -1 19 -3 4 -6 -2 -5 -13z"/>
<path d="M1850 3901 c0 -5 7 -12 16 -15 14 -5 15 -4 4 9 -14 17 -20 19 -20 6z"/>
<path d="M2185 3900 c-3 -5 -1 -10 4 -10 6 0 11 5 11 10 0 6 -2 10 -4 10 -3 0
-8 -4 -11 -10z"/>
<path d="M1755 3841 c-3 -5 0 -13 6 -17 8 -5 9 -3 4 6 -6 10 -4 12 9 7 10 -4
15 -3 11 3 -8 13 -22 13 -30 1z"/>
<path d="M1514 3732 c5 -8 -2 -14 -23 -18 -16 -4 -32 -12 -35 -20 -3 -8 -12
-14 -21 -14 -8 0 -15 -4 -15 -8 0 -4 -25 -21 -56 -37 -81 -43 -84 -49 -84
-197 0 -102 3 -130 16 -142 8 -9 18 -16 21 -16 4 0 3 3 0 6 -4 4 21 21 56 38
34 17 64 33 67 36 3 3 17 13 32 23 29 18 53 24 28 6 -13 -9 -13 -10 0 -6 8 2
15 8 15 14 0 5 8 17 18 27 9 10 17 23 17 29 5 253 5 260 -20 276 -15 10 -21
11 -16 3z m-59 -170 c-3 -16 -15 -38 -25 -47 -48 -44 -71 35 -24 82 23 23 27
24 41 10 10 -10 13 -24 8 -45z m33 -54 c29 -29 13 -53 -69 -101 -45 -26 -84
-45 -86 -43 -2 2 1 22 7 44 10 40 49 82 75 82 7 0 15 7 19 15 7 18 37 20 54 3z"/>
<path d="M1983 3713 c-10 -3 -10 -8 1 -19 18 -18 32 -18 17 -1 -6 8 -8 17 -4
20 7 8 4 8 -14 0z"/>
<path d="M1571 3574 c0 -11 3 -14 6 -6 3 7 2 16 -1 19 -3 4 -6 -2 -5 -13z"/>
<path d="M3925 3729 c-4 -6 -5 -12 -2 -15 2 -3 7 2 10 11 7 17 1 20 -8 4z"/>
<path d="M3822 3710 c0 -14 2 -19 5 -12 2 6 2 18 0 25 -3 6 -5 1 -5 -13z"/>
<path d="M3932 3700 c-7 -12 -8 -20 -2 -20 5 0 10 5 10 11 0 5 4 7 10 4 6 -3
7 1 4 9 -8 20 -7 20 -22 -4z"/>
<path d="M4060 3683 c0 -6 -12 -16 -27 -21 -16 -6 -21 -11 -12 -11 20 -1 56
25 46 35 -4 4 -7 2 -7 -3z"/>
<path d="M3967 3669 c7 -7 15 -10 18 -7 3 3 -2 9 -12 12 -14 6 -15 5 -6 -5z"/>
<path d="M4054 3644 c-18 -14 -18 -15 4 -4 12 6 22 13 22 15 0 8 -5 6 -26 -11z"/>
<path d="M4060 3620 c-9 -6 -10 -10 -3 -10 6 0 15 5 18 10 8 12 4 12 -15 0z"/>
<path d="M4527 3597 c-3 -7 3 -13 14 -13 13 0 15 3 7 13 -6 7 -12 13 -13 13
-2 0 -5 -6 -8 -13z"/>
<path d="M4440 3579 c0 -5 5 -7 10 -4 6 3 10 8 10 11 0 2 -4 4 -10 4 -5 0 -10
-5 -10 -11z"/>
<path d="M4517 3558 c5 -7 9 -18 9 -24 -1 -16 -30 -41 -44 -38 -7 1 -8 0 -2
-3 5 -2 10 -10 10 -17 0 -6 9 -12 20 -12 11 0 20 6 20 14 0 7 -4 10 -10 7 -16
-10 -12 11 5 25 8 6 20 9 27 5 7 -4 5 0 -5 8 -10 9 -18 18 -18 21 2 19 0 26
-10 26 -8 0 -8 -4 -2 -12z"/>
<path d="M4757 3549 c7 -7 15 -10 18 -7 3 3 -2 9 -12 12 -14 6 -15 5 -6 -5z"/>
<path d="M4470 3532 c0 -14 11 -21 26 -15 8 3 11 9 8 14 -7 11 -34 12 -34 1z"/>
<path d="M4576 3521 c-10 -16 5 -41 17 -30 7 5 21 16 32 24 l20 15 -20 -7
c-11 -3 -26 -11 -34 -17 -12 -9 -13 -8 -8 7 7 18 2 23 -7 8z"/>
<path d="M4676 3506 c10 -8 21 -12 24 -10 5 6 -21 24 -34 24 -6 0 -1 -6 10
-14z"/>
<path d="M4706 3485 c-9 -26 -7 -32 5 -12 6 10 9 21 6 23 -2 3 -7 -2 -11 -11z"/>
<path d="M4667 3474 c3 -7 0 -14 -6 -14 -6 0 -11 5 -11 10 0 6 -5 10 -11 10
-8 0 -9 -4 0 -13 6 -8 8 -17 5 -20 -4 -3 3 -5 14 -4 24 1 36 33 16 41 -8 3
-11 0 -7 -10z"/>
<path d="M4815 3480 c-3 -6 1 -7 9 -4 18 7 21 14 7 14 -6 0 -13 -4 -16 -10z"/>
<path d="M4563 3463 c-15 -5 -18 -43 -4 -43 5 0 11 11 13 25 3 14 5 25 4 24 0
0 -7 -3 -13 -6z"/>
<path d="M4876 3458 c3 -5 10 -6 15 -3 13 9 11 12 -6 12 -8 0 -12 -4 -9 -9z"/>
<path d="M4736 3441 c-4 -5 -1 -13 5 -17 8 -4 9 -3 5 4 -4 7 -3 12 3 12 5 0
12 -5 14 -10 3 -6 4 -5 3 2 -3 16 -23 22 -30 9z"/>
<path d="M4707 3433 c-10 -9 -9 -33 1 -33 4 0 8 9 8 20 0 23 0 22 -9 13z"/>
<path d="M4663 3395 c0 -8 4 -15 9 -15 4 0 8 4 8 9 0 6 -4 12 -8 15 -5 3 -9
-1 -9 -9z"/>
<path d="M4610 3396 c0 -2 7 -6 15 -10 8 -3 15 -1 15 4 0 6 -7 10 -15 10 -8 0
-15 -2 -15 -4z"/>
<path d="M4700 3376 c0 -8 4 -17 9 -20 5 -4 7 3 4 14 -6 23 -13 26 -13 6z"/>
<path d="M4916 3375 c-3 -8 -1 -15 4 -15 13 0 22 18 11 24 -5 3 -11 -1 -15 -9z"/>
<path d="M4852 3302 c2 -52 17 -66 59 -57 l32 7 -31 14 c-18 7 -33 18 -33 24
-1 5 -2 14 -3 20 0 5 -7 15 -14 22 -10 10 -12 4 -10 -30z m28 -26 c0 -3 -4 -8
-10 -11 -5 -3 -10 -1 -10 4 0 6 5 11 10 11 6 0 10 -2 10 -4z"/>
<path d="M2976 3678 c-15 -22 -14 -23 37 -55 28 -18 55 -33 60 -33 13 0 7 23
-18 67 -29 48 -55 55 -79 21z"/>
<path d="M2945 3549 c-8 -23 0 -31 87 -78 l58 -32 0 24 c0 19 -14 34 -63 66
-35 22 -66 41 -70 41 -3 0 -9 -9 -12 -21z"/>
<path d="M2650 3435 c-94 -55 -124 -78 -123 -92 7 -60 25 -176 29 -187 4 -9
36 5 108 48 l103 61 7 75 c4 41 9 96 13 123 3 26 2 47 -3 46 -5 0 -65 -34
-134 -74z"/>
<path d="M2893 3475 c-8 -25 -9 -43 -3 -49 16 -16 21 -1 18 45 l-3 44 -12 -40z"/>
<path d="M3117 3457 c-2 -6 -1 -19 4 -28 9 -17 90 -69 107 -69 18 0 22 31 7
46 -8 9 -15 13 -15 9 0 -3 -12 2 -27 13 -51 35 -71 43 -76 29z"/>
<path d="M3090 3358 c0 -7 -3 -23 -6 -35 -5 -17 -2 -23 10 -23 12 0 16 9 16
35 0 19 -4 35 -10 35 -5 0 -10 -6 -10 -12z"/>
<path d="M2383 3280 c-57 -33 -103 -63 -103 -66 0 -2 11 -27 25 -54 22 -43 34
-54 95 -85 79 -40 98 -37 120 15 10 24 10 46 1 108 -20 127 -23 142 -30 142
-3 0 -52 -27 -108 -60z"/>
<path d="M2680 3189 c-82 -49 -123 -79 -117 -86 9 -8 197 101 197 115 0 17 -7
15 -80 -29z"/>
<path d="M2216 3181 c-3 -4 6 -13 20 -19 23 -11 24 -10 14 8 -11 21 -25 26
-34 11z"/>
<path d="M2214 3074 c19 -143 28 -174 47 -174 21 0 25 -15 8 -26 -8 -4 -3 -12
12 -20 13 -7 27 -13 31 -14 12 0 -4 45 -24 66 -16 18 -17 22 -4 27 11 4 12 14
6 44 -4 21 -11 54 -14 73 -4 26 -15 41 -38 54 l-31 19 7 -49z"/>
<path d="M3427 3013 c9 -123 22 -147 20 -39 -1 64 -6 101 -13 103 -8 3 -10
-16 -7 -64z"/>
<path d="M2304 3045 c2 -11 7 -35 11 -52 6 -31 19 -42 28 -25 2 4 -7 27 -20
52 -13 25 -22 36 -19 25z"/>
<path d="M3471 2952 c-2 -87 -1 -89 25 -101 15 -6 28 -10 29 -9 1 2 5 38 8 80
7 76 6 77 -22 97 -16 12 -31 21 -34 21 -2 0 -5 -40 -6 -88z"/>
<path d="M2698 2975 c-54 -30 -54 -32 -9 -53 l40 -20 7 33 c10 57 4 64 -38 40z"/>
<path d="M3556 2903 c-7 -72 -6 -79 14 -95 12 -10 26 -18 30 -18 13 0 24 131
13 148 -5 9 -18 21 -30 29 -20 13 -20 11 -27 -64z"/>
<path d="M3636 2858 c-3 -33 -6 -69 -6 -78 0 -17 46 -45 53 -32 3 4 8 36 11
72 7 64 7 65 -22 82 l-29 17 -7 -61z"/>
<path d="M2563 2898 c-33 -16 -29 -88 4 -88 11 0 12 8 7 35 -5 27 -3 36 10 41
9 3 16 10 16 15 0 11 -9 11 -37 -3z"/>
<path d="M2630 2870 c0 -33 7 -37 34 -17 17 13 17 14 -8 30 l-26 17 0 -30z"/>
<path d="M2340 2855 c0 -19 9 -29 35 -42 19 -9 37 -14 39 -12 12 12 -9 51 -35
64 -37 20 -39 19 -39 -10z"/>
<path d="M2480 2850 c-12 -7 -12 -13 -1 -34 17 -31 41 -23 41 15 0 30 -13 36
-40 19z"/>
<path d="M3719 2843 c0 -10 -4 -42 -8 -71 -7 -51 -7 -52 24 -71 l32 -18 9 68
c9 68 9 69 -18 89 -33 24 -38 25 -39 3z"/>
<path d="M2254 2806 c4 -14 8 -37 11 -50 4 -18 10 -23 25 -19 43 11 51 65 12
76 -9 3 -25 8 -35 12 -15 6 -17 4 -13 -19z"/>
<path d="M3836 2801 c-4 -6 -13 -8 -21 -4 -11 4 -15 -2 -15 -23 0 -16 -3 -39
-6 -51 -4 -13 -2 -23 3 -23 16 0 73 56 73 72 0 21 -26 42 -34 29z"/>
<path d="M2360 2745 c0 -29 7 -31 38 -9 27 18 20 34 -14 34 -19 0 -24 -5 -24
-25z"/>
<path d="M3553 2700 c2 -50 7 -74 17 -80 12 -8 16 -2 22 28 12 66 9 109 -8
116 -31 12 -34 5 -31 -64z"/>
<path d="M2303 2728 c-14 -7 -23 -20 -23 -35 0 -23 1 -23 30 -8 18 9 30 23 30
35 0 22 -5 23 -37 8z"/>
<path d="M3619 2693 c0 -21 -3 -50 -5 -65 -9 -57 49 -23 60 34 6 31 3 39 -16
52 -33 23 -38 20 -39 -21z"/>
<path d="M3696 2667 c-7 -27 0 -33 19 -17 19 16 19 26 1 33 -9 4 -16 -3 -20
-16z"/>
<path d="M3805 2677 c-15 -12 -16 -15 -2 -20 9 -3 18 1 21 10 9 22 3 25 -19
10z"/>
<path d="M3694 2605 c-16 -24 -14 -55 4 -55 7 0 32 56 32 73 0 16 -21 5 -36
-18z"/>
<path d="M3780 2605 c0 -18 4 -23 15 -19 8 4 15 15 15 25 0 10 -7 19 -15 19
-9 0 -15 -9 -15 -25z"/>
<path d="M3555 2580 c-3 -5 1 -10 10 -10 9 0 13 5 10 10 -3 6 -8 10 -10 10 -2
0 -7 -4 -10 -10z"/>
<path d="M3350 2565 c0 -11 76 -55 95 -55 31 0 69 30 55 44 -8 8 -13 7 -19 -3
-9 -14 -47 -11 -44 5 1 5 -7 10 -17 10 -10 0 -16 -4 -14 -8 3 -4 0 -8 -5 -8
-6 0 -11 5 -11 10 0 6 -9 10 -20 10 -11 0 -20 -2 -20 -5z"/>
<path d="M3259 2517 c-2 -24 -1 -57 2 -73 4 -19 7 -3 8 44 1 79 -5 97 -10 29z"/>
<path d="M3611 2528 c-18 -50 -15 -61 12 -47 41 22 48 47 18 66 -17 11 -21 8
-30 -19z"/>
<path d="M3170 2540 c-9 -6 -10 -10 -3 -10 6 0 15 5 18 10 8 12 4 12 -15 0z"/>
<path d="M3549 2523 c-12 -14 -12 -16 0 -8 11 6 13 4 8 -8 -3 -10 -2 -17 2
-17 9 0 21 24 21 41 0 15 -16 10 -31 -8z"/>
<path d="M3770 2525 c0 -8 5 -15 10 -15 6 0 10 7 10 15 0 8 -4 15 -10 15 -5 0
-10 -7 -10 -15z"/>
<path d="M3354 2496 c6 -19 14 -32 19 -29 5 3 6 -5 2 -18 -4 -17 -3 -20 3 -10
8 11 12 10 21 -5 11 -16 11 -14 7 16 -6 31 -40 80 -56 80 -4 0 -2 -15 4 -34z"/>
<path d="M3480 2488 c-30 -31 -59 -102 -47 -114 5 -5 80 36 116 63 2 2 1 6 -2
10 -4 4 -21 -4 -38 -16 -17 -13 -34 -20 -37 -16 -4 4 1 12 10 19 10 7 15 15
13 18 -3 3 4 13 15 23 21 19 27 45 10 45 -5 0 -23 -14 -40 -32z"/>
<path d="M3710 2464 c-13 -40 -8 -53 15 -34 16 13 21 70 6 70 -5 0 -15 -16
-21 -36z"/>
<path d="M2510 2476 c0 -2 7 -9 15 -16 12 -10 15 -10 15 4 0 9 -7 16 -15 16
-8 0 -15 -2 -15 -4z"/>
<path d="M3671 2464 c0 -11 3 -14 6 -6 3 7 2 16 -1 19 -3 4 -6 -2 -5 -13z"/>
<path d="M3761 2464 c0 -11 3 -14 6 -6 3 7 2 16 -1 19 -3 4 -6 -2 -5 -13z"/>
<path d="M1982 2410 c-92 -55 -117 -80 -77 -80 20 0 209 113 207 125 -2 22
-32 12 -130 -45z"/>
<path d="M2438 2439 c-26 -15 -22 -26 12 -38 25 -8 32 -7 37 4 13 36 -14 55
-49 34z"/>
<path d="M3583 2422 c-13 -10 -24 -42 -14 -42 5 0 19 8 31 18 19 15 20 20 8
24 -8 4 -19 3 -25 0z"/>
<path d="M2535 2390 c-8 -13 5 -13 25 0 13 8 13 10 -2 10 -9 0 -20 -4 -23 -10z"/>
<path d="M2613 2393 c-23 -9 -14 -43 13 -53 38 -15 44 -13 44 15 0 20 -27 48
-42 44 -2 0 -9 -3 -15 -6z"/>
<path d="M3602 2369 c-30 -17 -52 -33 -49 -36 6 -5 94 44 103 58 8 13 4 12
-54 -22z"/>
<path d="M3498 2372 c-32 -19 -35 -27 -13 -36 17 -6 45 19 45 40 0 8 -1 14 -2
13 -2 0 -15 -8 -30 -17z"/>
<path d="M2258 2334 l-78 -45 1 -47 c0 -28 3 -40 7 -30 4 10 21 26 38 35 17
10 66 38 109 62 76 43 77 44 54 57 -36 20 -48 17 -131 -32z"/>
<path d="M3262 2333 c-2 -43 1 -53 14 -53 12 0 14 3 6 13 -6 7 -12 30 -15 52
-3 36 -4 35 -5 -12z"/>
<path d="M3683 2368 c-12 -15 -34 -78 -27 -78 9 0 104 55 104 61 0 4 -8 9 -17
12 -10 2 -25 8 -34 11 -9 4 -20 1 -26 -6z"/>
<path d="M2690 2351 c0 -20 13 -41 25 -41 23 0 29 22 10 37 -22 15 -35 17 -35
4z"/>
<path d="M2380 2299 c-36 -22 -78 -46 -95 -54 -37 -19 -70 -44 -64 -48 16 -14
225 -107 239 -107 10 0 21 7 24 16 4 10 14 14 26 11 13 -3 18 -1 14 5 -5 7 3
9 22 4 23 -6 26 -5 17 5 -10 10 -6 17 19 36 37 27 57 29 84 8 23 -17 12 -20
-19 -4 -18 9 -20 9 -9 -2 18 -20 14 -31 -7 -19 -25 13 -41 13 -21 0 13 -8 11
-12 -10 -27 -38 -27 -71 -43 -88 -43 -30 0 3 -20 123 -75 161 -74 149 -73 168
-23 8 24 30 82 48 131 20 53 29 91 23 96 -11 11 -398 131 -416 130 -7 0 -42
-18 -78 -40z"/>
<path d="M3596 2317 l-28 -23 25 -11 c22 -10 25 -9 35 23 12 40 7 42 -32 11z"/>
<path d="M3327 2319 c-11 -6 -17 -22 -17 -42 l1 -32 20 38 c23 43 22 50 -4 36z"/>
<path d="M3406 2304 c-8 -22 1 -31 16 -16 9 9 9 15 1 23 -7 7 -12 5 -17 -7z"/>
<path d="M2780 2300 c0 -11 42 -31 49 -24 5 5 -30 33 -41 34 -5 0 -8 -5 -8
-10z"/>
<path d="M3423 2263 c-24 -14 -43 -29 -43 -35 0 -9 61 22 84 43 23 20 -3 15
-41 -8z"/>
<path d="M2015 2194 c-60 -35 -206 -120 -324 -187 -118 -67 -214 -126 -214
-132 0 -5 81 -56 179 -112 122 -71 184 -101 197 -97 13 4 17 2 13 -5 -4 -5 7
-17 24 -26 20 -10 30 -12 30 -4 0 8 23 9 80 4 56 -5 80 -4 80 4 0 11 -52 16
-124 11 -28 -1 -37 2 -34 11 3 9 27 14 73 16 38 2 72 8 75 13 4 6 14 8 24 4
13 -5 16 -13 11 -35 -6 -25 -4 -29 15 -29 15 0 20 5 17 14 -4 9 5 21 20 31 14
10 22 12 19 6 -4 -6 -1 -17 6 -25 11 -12 17 -9 39 18 26 30 30 31 105 31 44 0
88 -4 99 -9 11 -5 22 -10 25 -11 3 -1 17 -7 32 -15 24 -11 30 -11 46 3 21 19
37 22 26 5 -4 -6 -3 -8 2 -5 18 11 35 -10 39 -44 2 -19 4 -60 4 -92 1 -56 2
-57 26 -51 34 8 120 -14 140 -36 23 -25 16 -59 -18 -84 -42 -31 -150 -30 -194
2 -18 13 -33 20 -33 15 0 -17 33 -55 56 -63 21 -8 24 -16 24 -57 l0 -48 97
-55 c104 -59 173 -91 141 -66 -16 11 -18 31 -18 144 0 75 4 133 10 137 6 4 7
-1 4 -12 -5 -15 -4 -16 5 -3 6 8 11 23 11 33 0 23 16 22 23 -3 4 -17 14 -20
66 -20 34 0 61 -3 61 -7 0 -11 44 -30 58 -25 7 2 12 8 12 14 0 6 -6 8 -13 5
-10 -4 -12 5 -10 30 1 20 4 38 7 40 7 8 46 -31 46 -45 0 -12 -3 -12 -15 -2
-11 9 -15 9 -15 1 0 -22 29 -23 72 -2 46 22 86 44 273 155 130 76 169 99 257
147 47 26 57 36 60 61 3 26 13 36 74 69 61 34 75 38 96 29 20 -10 33 -6 92 29
38 22 73 44 79 50 11 11 19 6 -286 182 l-208 120 -50 -30 c-27 -17 -54 -31
-59 -31 -26 0 -3 -25 69 -72 l79 -53 17 -109 c9 -59 13 -112 8 -116 -4 -4 -76
-48 -160 -98 l-152 -91 -58 32 c-71 39 -110 42 -118 9 -4 -15 -11 -22 -20 -18
-8 3 -17 1 -20 -5 -4 -5 -18 -2 -36 8 -30 18 -38 31 -16 30 28 -1 76 16 82 31
3 8 4 16 3 17 -2 2 -48 23 -103 48 l-100 45 -9 -24 c-6 -13 -13 -24 -17 -24
-14 0 -31 30 -25 45 8 21 -32 44 -74 41 -38 -2 -90 18 -90 35 0 8 5 7 15 -1
17 -14 34 -5 19 10 -17 17 -297 140 -306 134 -5 -3 -30 8 -56 25 -26 16 -80
44 -121 61 -67 29 -76 30 -86 16 -19 -25 -63 28 -67 81 l-3 42 -110 -65z m73
-104 c25 -24 35 -55 30 -96 -4 -40 -39 -44 -67 -8 -24 30 -30 109 -8 117 20 9
22 8 45 -13z m308 -66 c18 -15 18 -15 -11 -9 -20 4 -26 3 -16 -4 12 -8 12 -11
-1 -25 -9 -8 -18 -12 -22 -9 -3 4 -12 -1 -19 -11 -16 -22 -61 -18 -65 7 -2 11
3 17 17 17 11 0 32 11 47 25 31 29 43 31 70 9z m-136 -71 c24 -21 26 -33 5
-33 -8 0 -15 -4 -15 -10 0 -5 -5 -10 -11 -10 -6 0 -24 -10 -41 -21 -29 -21
-30 -21 -64 -3 -37 20 -31 41 7 29 30 -10 34 -9 34 12 0 12 39 45 62 52 2 1
12 -7 23 -16z m-167 -87 c14 -9 27 -26 30 -38 25 -93 -205 -123 -253 -33 -11
20 -10 28 4 49 9 14 31 30 49 35 44 14 139 7 170 -13z m632 -18 c14 -6 25 -15
25 -20 0 -5 -9 -4 -19 2 -28 15 -35 12 -20 -6 12 -15 11 -16 -9 -10 -18 6 -21
4 -15 -11 3 -10 3 -15 -1 -11 -4 3 -16 -2 -27 -13 -16 -16 -23 -17 -40 -8 -19
9 -20 8 -14 -10 4 -12 2 -21 -4 -21 -6 0 -11 -7 -11 -16 0 -9 -5 -12 -12 -8
-8 5 -9 2 -4 -11 5 -14 4 -16 -7 -7 -10 9 -19 7 -35 -8 -21 -20 -42 -26 -42
-12 0 9 -61 37 -76 34 -6 -1 -11 5 -11 13 0 9 6 14 13 11 15 -6 37 18 26 29
-4 5 -1 5 6 1 7 -4 10 -11 7 -16 -6 -10 54 -44 63 -36 3 3 -1 6 -8 6 -7 0 -10
3 -7 7 4 3 2 12 -4 20 -6 7 -10 13 -8 14 2 0 15 3 29 5 13 2 27 8 30 13 3 4
23 14 45 22 22 7 54 24 70 36 36 27 28 26 60 11z m-877 -113 c-3 -3 -9 2 -12
12 -6 14 -5 15 5 6 7 -7 10 -15 7 -18z m996 -29 c20 -31 21 -89 2 -105 -22
-19 -51 2 -70 50 -34 85 19 129 68 55z m-511 17 c-7 -2 -19 -2 -25 0 -7 3 -2
5 12 5 14 0 19 -2 13 -5z m-423 -32 c7 -14 7 -22 -1 -27 -8 -4 -7 -9 2 -16 11
-7 9 -8 -4 -4 -10 3 -24 6 -30 6 -7 1 -1 7 13 15 25 13 24 14 -12 11 -21 -2
-35 1 -32 6 3 5 15 6 26 2 17 -5 20 -3 15 10 -9 23 10 20 23 -3z m300 -15 c0
-3 -4 -8 -10 -11 -5 -3 -10 -1 -10 4 0 6 5 11 10 11 6 0 10 -2 10 -4z m845
-48 c28 -12 33 -28 10 -28 -8 0 -15 -3 -15 -8 0 -4 -22 -18 -50 -31 -42 -20
-52 -22 -67 -10 -15 11 -16 11 -5 -1 15 -17 16 -30 1 -30 -6 0 -22 -8 -35 -19
-23 -18 -23 -19 -4 -24 11 -3 20 -11 20 -19 0 -9 -3 -9 -8 -2 -12 18 -47 22
-60 7 -9 -9 -17 -10 -25 -3 -7 5 -23 19 -37 29 -33 26 -20 37 19 16 32 -16 34
-15 31 23 -1 17 4 22 22 22 22 0 46 13 117 65 38 28 49 30 86 13z m-101 -134
c3 -8 2 -12 -4 -9 -6 3 -10 10 -10 16 0 14 7 11 14 -7z m-29 -3 c-3 -5 4 -12
15 -16 11 -4 18 -10 15 -15 -3 -5 -15 -2 -25 8 -22 18 -26 32 -9 32 5 0 8 -4
4 -9z"/>
<path d="M2335 2000 c3 -5 11 -10 16 -10 6 0 7 5 4 10 -3 6 -11 10 -16 10 -6
0 -7 -4 -4 -10z"/>
<path d="M3457 2232 c-32 -20 -34 -28 -6 -35 15 -4 23 1 30 20 12 33 9 35 -24
15z"/>
<path d="M3514 2235 c-4 -9 -4 -18 -2 -21 9 -8 39 8 35 19 -6 18 -27 20 -33 2z"/>
<path d="M3194 2205 c-3 -20 -4 -38 -1 -42 7 -7 77 36 77 47 0 6 -52 30 -66
30 -2 0 -6 -16 -10 -35z"/>
<path d="M3140 2221 c-8 -6 -17 -8 -20 -6 -3 2 -7 -5 -7 -16 -1 -12 7 -23 20
-28 29 -11 37 -5 37 30 0 31 -6 35 -30 20z"/>
<path d="M2919 2163 c-45 -116 -79 -209 -79 -214 0 -4 7 -10 16 -13 9 -3 12
-2 9 5 -4 6 3 8 22 4 21 -5 24 -4 13 4 -8 5 -12 12 -10 14 29 23 71 47 82 47
8 0 23 -7 34 -16 18 -15 18 -15 -11 -9 -21 4 -26 3 -15 -4 23 -15 5 -24 -22
-11 -19 10 -21 10 -11 0 10 -11 8 -17 -9 -32 -12 -10 -27 -18 -33 -18 -20 0
-26 -28 -7 -32 14 -4 329 166 355 191 6 6 -292 111 -317 111 -3 0 -11 -12 -17
-27z"/>
<path d="M3296 2164 c-4 -14 -5 -28 -3 -31 3 -2 8 8 11 23 4 14 5 28 3 31 -3
2 -8 -8 -11 -23z"/>
<path d="M3425 2170 c3 -5 11 -10 16 -10 6 0 7 5 4 10 -3 6 -11 10 -16 10 -6
0 -7 -4 -4 -10z"/>
<path d="M3237 2156 c-16 -12 -16 -14 -1 -20 26 -10 34 -7 34 14 0 23 -8 25
-33 6z"/>
<path d="M1592 2153 c-18 -7 -4 -23 19 -23 12 0 19 5 17 12 -5 14 -18 18 -36
11z"/>
<path d="M1501 2109 c-19 -8 -21 -12 -11 -24 16 -19 44 -19 59 -1 17 20 -15
37 -48 25z"/>
<path d="M3400 2106 c0 -8 11 -17 25 -20 52 -13 77 -137 29 -144 -14 -2 -29 7
-44 25 -18 23 -21 37 -17 76 5 56 -8 68 -45 43 -12 -9 -29 -16 -36 -16 -14 0
-339 -186 -346 -199 -3 -4 51 -34 120 -66 104 -48 129 -57 142 -47 42 30 62
35 88 23 15 -6 24 -14 21 -17 -3 -3 -15 -1 -26 6 -12 6 -21 7 -21 1 0 -5 6
-12 13 -15 6 -3 -1 -4 -18 -1 -16 2 -24 2 -17 -1 17 -8 15 -27 -2 -21 -9 4
-13 1 -10 -7 5 -13 56 -46 72 -46 6 0 68 33 139 74 l128 74 -3 69 c-1 37 -5
77 -7 88 -4 17 -161 135 -179 135 -3 0 -6 -6 -6 -14z"/>
<path d="M4060 1791 c0 -29 77 -71 130 -71 34 0 91 22 110 42 27 30 19 33 -21
9 -25 -15 -51 -21 -96 -21 -52 0 -66 4 -92 26 -17 14 -31 21 -31 15z"/>
<path d="M4340 1711 c-36 -21 -157 -91 -270 -156 -113 -65 -225 -130 -250
-145 -236 -143 -471 -270 -496 -270 -17 0 -77 27 -144 65 -120 67 -140 69
-140 19 0 -16 11 -29 41 -46 l40 -22 -2 -118 c-1 -65 -1 -119 2 -121 2 -2 38
-23 79 -46 41 -24 137 -79 213 -123 80 -46 145 -77 153 -74 9 3 115 64 237
135 350 203 987 571 1042 602 28 15 50 33 50 40 0 6 -13 21 -28 33 l-28 21
-62 -34 c-34 -19 -93 -53 -132 -76 -38 -23 -90 -53 -115 -67 -54 -30 -155 -89
-591 -342 -117 -68 -175 -96 -198 -96 -37 0 -281 134 -281 153 0 22 15 35 80
72 36 20 113 64 171 98 58 34 176 102 262 152 126 72 157 94 157 111 0 15 15
31 48 52 82 52 104 61 127 50 16 -7 38 1 110 43 50 28 91 52 93 54 3 3 -93 75
-99 75 -2 0 -33 -17 -69 -39z"/>
<path d="M4030 1708 c0 -35 -29 -60 -110 -99 -19 -10 -28 -18 -20 -19 33 -4
66 3 90 19 14 10 49 31 78 46 28 16 52 31 52 34 0 6 -75 51 -84 51 -4 0 -6
-15 -6 -32z"/>
<path d="M3110 1676 c0 -2 7 -6 15 -10 8 -3 15 -1 15 4 0 6 -7 10 -15 10 -8 0
-15 -2 -15 -4z"/>
<path d="M2476 1642 c-2 -4 4 -8 14 -8 10 0 16 4 14 8 -3 4 -9 8 -14 8 -5 0
-11 -4 -14 -8z"/>
<path d="M2547 1633 c-4 -3 -7 -11 -7 -17 0 -6 5 -5 12 2 6 6 9 14 7 17 -3 3
-9 2 -12 -2z"/>
<path d="M1965 1600 c-3 -6 1 -7 9 -4 18 7 21 14 7 14 -6 0 -13 -4 -16 -10z"/>
<path d="M2190 1605 c0 -3 7 -17 16 -31 21 -32 74 -54 128 -54 45 0 126 32
126 50 0 6 4 9 9 5 6 -3 9 3 8 13 -1 16 -27 28 -27 12 0 -18 -63 -40 -118 -40
-47 0 -67 5 -96 25 -38 26 -46 29 -46 20z"/>
<path d="M4489 1522 c28 -52 153 -67 209 -25 39 29 39 47 0 23 -47 -28 -138
-28 -185 2 l-35 21 11 -21z"/>
<path d="M4430 1443 c0 -32 -6 -41 -35 -60 -19 -13 -42 -23 -50 -23 -8 0 -15
-4 -15 -10 0 -5 -7 -10 -15 -10 -8 0 -15 -4 -15 -10 0 -24 59 -6 141 41 49 28
89 53 89 55 0 2 -22 15 -50 29 l-50 25 0 -37z"/>
<path d="M5197 1201 c-5 -24 -20 -37 -73 -67 -54 -30 -68 -34 -76 -23 -8 11
-9 10 -4 -3 7 -22 -13 -35 -26 -17 -8 11 -9 11 -5 -3 4 -12 -42 -43 -209 -139
-189 -109 -235 -139 -206 -139 5 0 34 -16 66 -35 71 -43 105 -44 171 -6 454
258 550 316 553 332 2 12 -17 29 -60 54 -35 21 -77 46 -94 57 l-31 18 -6 -29z"/>
<path d="M5010 1141 c0 -6 4 -13 10 -16 6 -3 7 1 4 9 -7 18 -14 21 -14 7z"/>
<path d="M4980 1133 c0 -15 18 -35 23 -27 3 5 -1 15 -9 22 -8 7 -14 9 -14 5z"/>
<path d="M4950 1113 c1 -18 18 -35 24 -24 4 6 2 11 -4 11 -6 0 -8 5 -5 10 3 6
1 10 -4 10 -6 0 -11 -3 -11 -7z"/>
<path d="M4550 871 c-52 -31 -96 -64 -98 -74 -2 -9 1 -17 6 -17 22 0 207 117
210 133 5 27 -17 19 -118 -42z"/>
<path d="M4080 3400 c0 -5 5 -10 11 -10 5 0 7 5 4 10 -3 6 -8 10 -11 10 -2 0
-4 -4 -4 -10z"/>
<path d="M4010 3390 c0 -5 5 -10 11 -10 5 0 7 5 4 10 -3 6 -8 10 -11 10 -2 0
-4 -4 -4 -10z"/>
<path d="M4290 3375 c0 -8 4 -15 10 -15 5 0 7 7 4 15 -4 8 -8 15 -10 15 -2 0
-4 -7 -4 -15z"/>
<path d="M3879 3298 c-2 -22 2 -43 12 -52 5 -6 9 4 9 27 0 33 -18 55 -21 25z"/>
<path d="M3940 3251 c0 -16 5 -33 10 -36 6 -4 10 6 10 24 0 16 -4 33 -10 36
-6 4 -10 -6 -10 -24z"/>
<path d="M4010 3206 c0 -20 5 -36 10 -36 6 0 10 13 10 29 0 17 -4 33 -10 36
-6 4 -10 -8 -10 -29z"/>
<path d="M4070 3172 c0 -16 7 -35 15 -42 13 -11 15 -8 15 18 0 16 -7 35 -15
42 -13 11 -15 8 -15 -18z"/>
<path d="M5052 3160 c0 -14 2 -19 5 -12 2 6 2 18 0 25 -3 6 -5 1 -5 -13z"/>
<path d="M3884 3135 c3 -21 16 -31 16 -12 0 9 -4 18 -9 21 -5 4 -8 -1 -7 -9z"/>
<path d="M3920 3116 c0 -8 5 -18 10 -21 6 -3 10 1 10 9 0 8 -4 18 -10 21 -5 3
-10 -1 -10 -9z"/>
<path d="M3972 3080 c0 -14 2 -19 5 -12 2 6 2 18 0 25 -3 6 -5 1 -5 -13z"/>
<path d="M4011 3054 c0 -11 3 -14 6 -6 3 7 2 16 -1 19 -3 4 -6 -2 -5 -13z"/>
<path d="M4174 3130 c3 -14 6 -33 6 -42 0 -10 5 -18 10 -18 16 0 12 44 -6 66
-15 18 -15 18 -10 -6z"/>
<path d="M4240 3076 c0 -19 5 -38 10 -41 6 -4 10 8 10 29 0 19 -4 38 -10 41
-6 4 -10 -8 -10 -29z"/>
<path d="M4310 3036 c0 -19 5 -38 10 -41 6 -4 10 8 10 29 0 19 -4 38 -10 41
-6 4 -10 -8 -10 -29z"/>
<path d="M4370 3007 c0 -32 9 -57 21 -57 15 0 10 57 -6 70 -13 11 -15 8 -15
-13z"/>
<path d="M1865 2930 c3 -5 8 -10 11 -10 2 0 4 5 4 10 0 6 -5 10 -11 10 -5 0
-7 -4 -4 -10z"/>
<path d="M1817 2869 c7 -7 15 -10 18 -7 3 3 -2 9 -12 12 -14 6 -15 5 -6 -5z"/>
<path d="M4465 2948 c9 -44 25 -60 25 -26 0 33 -9 58 -22 58 -6 0 -7 -13 -3
-32z"/>
<path d="M4530 2912 c0 -16 6 -34 13 -40 10 -9 12 -4 9 24 -5 43 -22 55 -22
16z"/>
<path d="M4600 2868 c0 -20 5 -40 10 -43 17 -10 16 52 -1 70 -5 5 -9 -5 -9
-27z"/>
<path d="M4660 2831 c0 -16 7 -34 15 -41 13 -11 15 -8 15 13 0 32 -9 57 -21
57 -5 0 -9 -13 -9 -29z"/>
<path d="M4364 2855 c3 -21 16 -31 16 -12 0 9 -4 18 -9 21 -5 4 -8 -1 -7 -9z"/>
<path d="M4396 2833 c-6 -14 -5 -15 5 -6 7 7 10 15 7 18 -3 3 -9 -2 -12 -12z"/>
<path d="M4480 2771 c0 -5 7 -12 16 -15 24 -9 28 -7 14 9 -14 17 -30 20 -30 6z"/>
<path d="M4770 2766 c0 -20 5 -36 10 -36 6 0 10 13 10 29 0 17 -4 33 -10 36
-6 4 -10 -8 -10 -29z"/>
<path d="M4832 2735 c2 -21 9 -40 16 -43 18 -6 15 53 -4 69 -14 11 -15 8 -12
-26z"/>
<path d="M4900 2691 c0 -28 15 -49 27 -38 8 8 -7 67 -18 67 -5 0 -9 -13 -9
-29z"/>
<path d="M4964 2649 c10 -51 28 -62 24 -15 -2 23 -9 41 -17 44 -11 4 -13 -3
-7 -29z"/>
<path d="M1350 2640 c0 -5 4 -10 9 -10 6 0 13 5 16 10 3 6 -1 10 -9 10 -9 0
-16 -4 -16 -10z"/>
<path d="M1651 2634 c0 -11 3 -14 6 -6 3 7 2 16 -1 19 -3 4 -6 -2 -5 -13z"/>
<path d="M4252 2518 c2 -13 13 -27 26 -33 17 -8 22 -18 22 -47 0 -27 6 -41 22
-52 20 -14 23 -14 31 -1 4 8 5 20 2 25 -3 6 0 10 7 10 10 0 9 3 -2 10 -8 5
-12 12 -8 15 3 4 14 -2 24 -12 11 -10 44 -32 74 -48 30 -16 61 -36 67 -46 16
-21 53 -14 53 11 0 10 -8 21 -17 25 -10 3 -79 42 -154 86 -75 43 -139 79 -143
79 -4 0 -6 -10 -4 -22z m298 -158 c0 -5 -2 -10 -4 -10 -3 0 -8 5 -11 10 -3 6
-1 10 4 10 6 0 11 -4 11 -10z"/>
<path d="M4250 2372 c0 -11 12 -30 28 -41 15 -12 33 -26 40 -31 6 -6 12 -7 12
-3 0 4 4 4 8 -2 4 -5 37 -26 75 -45 47 -24 66 -39 62 -49 -4 -11 -3 -12 10 -1
12 10 16 9 21 -3 3 -9 12 -13 20 -10 8 3 14 0 14 -6 0 -6 7 -11 15 -11 8 0 15
9 15 21 0 15 -5 19 -17 15 -10 -3 -25 -1 -33 5 -12 8 -10 9 8 4 12 -3 22 -4
22 -2 0 3 -57 37 -127 78 -71 40 -138 79 -150 87 -21 13 -23 13 -23 -6z"/>
<path d="M4490 2290 c0 -5 5 -10 11 -10 5 0 7 5 4 10 -3 6 -8 10 -11 10 -2 0
-4 -4 -4 -10z"/>
<path d="M4299 2278 c0 -7 -1 -35 -1 -63 0 -27 -6 -54 -12 -58 -6 -5 -2 -6 11
-2 12 3 24 1 28 -5 11 -19 33 -10 37 15 3 14 2 25 -3 25 -4 0 -5 15 -2 34 4
27 1 36 -18 50 -28 19 -39 20 -40 4z"/>
<path d="M4521 1977 c2 -1 13 -9 24 -17 19 -14 19 -14 6 3 -7 9 -18 17 -24 17
-6 0 -8 -1 -6 -3z"/>
<path d="M1305 1369 c7 -85 19 -117 31 -86 11 29 31 19 58 -28 28 -48 37 -53
54 -32 8 10 8 19 -2 33 -51 75 -51 73 -20 84 31 12 36 7 -70 75 l-58 37 7 -83z"/>
<path d="M1332 1260 c-7 -12 -17 -18 -23 -14 -7 4 -9 -3 -7 -17 4 -30 41 -49
99 -49 36 0 51 5 69 25 19 20 22 30 14 42 -6 9 -16 19 -23 21 -10 3 -10 -1 1
-17 12 -20 10 -24 -12 -41 -14 -11 -27 -20 -30 -20 -3 0 -16 20 -30 45 -27 50
-39 55 -58 25z"/>
<path d="M2312 695 c0 -16 2 -22 5 -12 2 9 2 23 0 30 -3 6 -5 -1 -5 -18z"/>
</g>
</svg>
