<?xml version="1.0" standalone="no"?>
<!DOCTYPE svg PUBLIC "-//W3C//DTD SVG 20010904//EN"
 "http://www.w3.org/TR/2001/REC-SVG-20010904/DTD/svg10.dtd">
<svg version="1.0" xmlns="http://www.w3.org/2000/svg"
 width="1000.000000pt" height="563.000000pt" viewBox="0 0 1000.000000 563.000000"
 preserveAspectRatio="xMidYMid meet">

<g transform="translate(0.000000,563.000000) scale(0.100000,-0.100000)"
fill="#000000" stroke="none">
<path d="M0 2815 l0 -2815 975 0 c644 0 975 4 975 10 0 6 -11 8 -24 6 -20 -3
-23 0 -23 20 0 17 4 23 13 20 7 -3 16 -1 19 4 4 6 2 10 -4 10 -5 0 -8 8 -6 18
1 9 9 16 16 14 8 -2 11 0 6 4 -11 12 -47 12 -40 1 3 -6 1 -7 -5 -3 -6 4 -9 13
-5 21 3 11 -2 15 -18 15 -19 0 -21 2 -10 9 9 6 23 6 35 0 20 -10 20 -9 2 5
-10 8 -19 26 -20 39 -1 18 -6 23 -19 19 -15 -4 -17 1 -14 31 2 20 0 41 -4 49
-7 10 -9 10 -9 -2 0 -9 -10 -16 -22 -17 -21 -2 -21 -1 -5 8 14 8 16 14 6 25
-6 7 -15 12 -18 9 -4 -2 -8 2 -8 10 0 9 5 11 11 6 7 -4 19 0 29 12 19 19 18
19 -5 12 -12 -4 -20 -4 -15 0 4 5 -1 18 -10 29 -10 12 -11 15 -3 9 8 -7 21
-13 29 -13 11 0 11 3 -3 13 -18 13 -18 15 -1 41 10 15 14 26 9 24 -5 -2 -20 5
-34 15 -13 9 -20 17 -14 17 5 0 15 -5 22 -12 9 -9 13 -7 18 5 3 9 11 14 18 10
6 -4 5 1 -3 10 -12 15 -12 19 5 31 10 8 23 12 27 9 5 -3 4 4 -2 16 -10 17 -9
21 4 21 8 0 15 5 15 11 0 5 -4 8 -9 5 -12 -8 -19 14 -13 36 2 10 9 15 15 11 5
-3 7 -1 3 5 -3 6 7 25 23 43 l30 33 3 185 c4 277 1 339 -20 344 -9 3 0 5 21 6
50 1 48 21 -3 21 -22 0 -40 4 -40 8 0 5 -7 9 -15 9 -8 0 -15 -9 -15 -19 0 -13
-8 -18 -30 -18 -16 0 -30 5 -30 10 0 6 -16 10 -36 10 -41 0 -74 15 -74 34 0
13 -20 26 -41 26 -13 0 -11 -34 4 -49 10 -10 8 -12 -8 -9 -45 8 -24 68 24 68
42 0 70 11 74 29 4 14 5 14 6 0 1 -13 13 -22 64 -47 16 -8 6 18 -19 47 -14 17
-21 31 -15 31 5 0 13 -5 16 -10 16 -27 22 9 18 107 -9 204 55 387 188 536 l46
52 -41 -3 -41 -3 40 35 c48 42 141 90 210 108 28 7 68 27 89 45 44 36 90 53
150 53 72 0 118 -21 183 -85 34 -33 75 -68 92 -77 l31 -17 0 -148 c0 -129 -6
-183 -26 -242 -3 -11 -9 -8 -21 10 -23 34 -75 89 -85 89 -5 0 -22 -10 -38 -22
-16 -12 -37 -22 -47 -23 -10 -1 -31 -7 -47 -14 -41 -16 -124 2 -175 40 -23 16
-45 29 -50 29 -15 0 -98 -95 -119 -136 -65 -129 -49 -304 38 -414 24 -30 39
-40 61 -40 23 0 29 -5 29 -21 0 -22 51 -49 95 -49 l27 0 -4 75 c-2 53 1 76 9
80 28 10 273 4 273 -7 0 -17 45 36 59 71 16 38 24 39 39 6 21 -46 68 -65 160
-65 95 0 95 0 58 -84 -32 -73 -94 -161 -150 -216 l-46 -44 0 -81 c0 -44 4 -85
8 -91 4 -6 33 -16 65 -22 32 -6 70 -21 84 -32 20 -15 41 -20 92 -20 l66 0 -3
42 c-3 48 8 63 95 136 49 40 55 42 117 42 45 0 66 -4 66 -12 0 -9 3 -9 12 0
16 16 148 16 148 0 0 -9 3 -9 12 0 15 15 130 16 145 1 8 -8 13 -8 17 0 9 14
129 14 143 0 8 -8 13 -8 17 0 10 16 133 14 139 -1 4 -10 7 -10 18 -1 18 17
136 17 142 1 4 -10 7 -10 18 -1 7 7 23 13 36 13 l23 0 0 169 c0 93 3 176 6
185 6 14 72 16 650 16 l644 0 0 -185 0 -185 26 0 c15 0 33 -8 40 -18 13 -16
13 -16 14 1 0 14 10 17 69 17 55 0 70 -3 75 -17 5 -12 9 -14 18 -5 15 15 130
16 145 1 8 -8 13 -8 17 0 10 16 146 15 146 -1 0 -9 3 -9 12 0 16 16 145 16
151 0 4 -10 7 -10 14 -1 6 8 52 12 151 12 161 0 170 -3 235 -75 31 -35 37 -49
37 -86 0 -25 2 -47 4 -49 9 -9 106 3 100 13 -4 7 7 8 32 5 44 -7 265 -22 277
-19 4 1 7 -2 7 -7 0 -4 -19 -12 -42 -18 -35 -7 -6 -10 147 -15 108 -4 196 -3
205 2 9 6 10 10 3 10 -7 0 -10 7 -7 15 8 20 65 19 144 -1 63 -16 316 -27 391
-17 30 4 38 10 43 32 3 14 8 36 12 48 5 20 1 22 -71 34 -82 14 -82 14 -58 75
6 16 -3 17 -138 10 -80 -4 -146 -11 -147 -17 -3 -6 -36 -7 -90 -3 -81 7 -85 6
-77 -12 4 -10 10 -34 13 -53 l5 -34 -69 8 c-38 4 -75 7 -81 8 -20 1 -15 51 6
79 l20 25 -162 17 c-89 9 -175 20 -191 23 -26 5 -28 4 -20 -18 4 -13 8 -35 8
-49 1 -23 -2 -25 -44 -23 -25 1 -60 5 -79 8 -31 6 -33 8 -27 38 3 17 13 38 22
48 14 16 14 20 -3 45 -12 19 -18 47 -18 89 0 57 3 63 58 139 43 59 57 87 57
112 0 35 -46 264 -55 273 -3 2 -5 -13 -5 -33 0 -30 -7 -45 -34 -72 l-34 -34
-1898 0 c-1487 0 -1904 3 -1923 13 -13 6 -32 23 -42 37 -16 23 -18 56 -21 349
l-3 324 -50 0 c-27 -1 -69 3 -92 9 -52 12 -124 73 -148 124 -26 55 -24 163 4
246 36 109 110 158 235 158 l56 0 -1 690 c-2 627 0 691 15 714 38 58 -55 54
1416 59 745 2 1604 1 1907 -2 l553 -6 27 -28 28 -27 5 -897 5 -897 221 0 220
-1 53 -45 c52 -45 53 -48 71 -133 11 -54 14 -90 8 -93 -5 -4 -8 -15 -5 -25 4
-15 0 -17 -24 -12 -26 5 -29 3 -29 -21 0 -19 5 -26 20 -26 14 0 18 4 13 17 -6
16 -5 16 22 -1 24 -16 49 -19 145 -21 63 0 158 -9 210 -18 52 -9 128 -22 168
-28 84 -14 79 4 57 -194 -19 -168 -19 -168 7 -180 31 -14 55 -61 62 -120 l6
-50 -15 55 c-34 120 -83 138 -86 32 0 -20 -6 -57 -12 -82 -13 -49 -4 -46 -124
-49 -44 -1 -52 -4 -55 -21 -4 -27 -22 -27 -26 1 -4 21 -7 21 -95 14 -51 -4
-92 -8 -92 -8 -1 -1 -25 -39 -54 -85 -49 -75 -54 -87 -53 -138 0 -37 6 -62 15
-72 18 -17 95 -34 291 -62 163 -23 216 -25 216 -7 0 6 7 84 15 172 8 88 15
172 15 188 0 24 4 27 33 27 31 0 33 -2 46 -57 7 -32 37 -140 67 -239 30 -100
54 -186 54 -190 0 -5 -27 -9 -60 -8 -33 0 -60 -1 -60 -2 0 -2 30 -20 68 -40
79 -44 81 -45 64 -51 -6 -3 -10 -9 -6 -14 3 -5 1 -9 -3 -9 -5 0 -9 -9 -10 -20
-1 -11 2 -18 8 -15 5 4 9 1 9 -4 0 -6 3 -11 8 -11 21 1 33 22 42 76 11 68 50
646 50 747 l0 67 38 0 39 0 37 -177 c21 -98 55 -257 76 -353 33 -149 62 -341
61 -403 0 -9 6 -17 12 -17 7 0 13 -9 13 -19 0 -11 -4 -17 -9 -14 -5 3 -6 -4
-2 -17 6 -17 4 -21 -6 -14 -12 7 -12 5 0 -9 11 -14 11 -18 -2 -23 -10 -3 -13
-13 -9 -27 5 -20 4 -21 -13 -7 -10 8 -16 10 -12 4 9 -16 16 -64 9 -63 -22 3
-33 -3 -29 -15 3 -8 -1 -17 -9 -20 -9 -3 -13 -10 -10 -14 3 -5 -2 -18 -10 -28
-9 -10 -12 -13 -8 -5 4 9 3 12 -4 7 -6 -4 -8 -14 -5 -23 4 -11 3 -14 -5 -9 -7
4 -10 2 -6 -7 3 -8 -2 -20 -11 -27 -10 -8 -15 -9 -15 -1 0 6 -4 11 -10 11 -5
0 -10 -12 -10 -27 -1 -26 -1 -27 -13 -8 -14 24 -34 30 -34 10 0 -8 4 -12 8
-10 4 3 10 -2 13 -11 7 -18 -8 -11 -43 20 l-23 21 5 -38 c4 -29 2 -35 -7 -27
-7 5 -17 6 -22 2 -4 -4 -2 2 6 12 14 18 13 18 -10 12 l-25 -7 25 15 c14 9 23
16 20 16 -27 7 -50 5 -50 -4 -1 -6 -9 0 -20 12 -14 18 -17 29 -10 42 8 14 5
17 -16 14 -14 -1 -29 -6 -32 -10 -4 -4 1 -4 10 -1 13 4 17 1 16 -16 -1 -38 2
-48 12 -42 16 10 12 -5 -7 -23 -16 -16 -16 -16 -10 0 8 22 -1 27 -33 17 l-25
-7 24 -1 c17 -1 22 -5 17 -17 -4 -9 -2 -22 3 -28 6 -7 4 -20 -5 -36 -12 -20
-14 -21 -9 -4 4 14 1 21 -10 21 -9 0 -14 -6 -11 -12 2 -7 -2 -12 -9 -11 -8 0
-14 -3 -14 -8 1 -19 -25 -24 -37 -8 -10 14 -11 12 -7 -11 4 -20 9 -25 16 -18
15 15 24 14 24 -3 0 -8 -3 -15 -6 -14 -19 2 -24 -4 -12 -11 12 -7 12 -13 3
-24 -7 -7 -8 -18 -4 -22 4 -5 1 -5 -6 -1 -7 5 -11 14 -8 21 6 17 -20 13 -37
-5 -7 -8 -8 -10 -1 -7 7 4 19 -4 27 -17 15 -22 14 -25 -6 -44 -12 -10 -27 -18
-34 -15 -6 2 -15 -1 -19 -8 -4 -7 -3 -9 4 -5 6 3 17 -1 25 -9 14 -13 130 -15
951 -15 l936 0 0 2815 0 2815 -5000 0 -5000 0 0 -2815z m2733 2142 c30 -21 67
-55 82 -77 l27 -38 35 24 c45 30 96 31 143 3 43 -27 55 -41 84 -104 19 -41 33
-55 77 -79 29 -17 68 -40 86 -52 18 -12 49 -25 70 -29 52 -9 102 -34 113 -56
28 -52 -38 -79 -198 -80 -64 0 -125 -4 -135 -8 -18 -6 -18 -7 0 -23 10 -9 34
-23 53 -31 33 -15 25 -15 -142 -16 -174 -1 -177 -1 -207 -26 -16 -14 -33 -35
-36 -46 -6 -19 -15 -20 -123 -19 -65 0 -144 -6 -177 -13 -77 -17 -575 -18
-596 0 -8 6 -34 16 -58 23 -55 15 -91 50 -91 89 0 25 7 35 43 55 23 14 77 34
120 46 100 28 145 46 180 76 16 13 77 49 137 80 76 38 111 62 116 77 16 55 76
166 108 200 50 53 88 68 168 64 58 -2 73 -7 121 -40z m4452 -149 c85 -28 137
-61 199 -128 135 -146 169 -351 87 -526 l-29 -61 -65 -5 c-109 -9 -201 -73
-244 -170 -16 -35 -20 -38 -60 -38 l-43 0 -1 198 c0 222 -7 255 -58 289 -34
23 -35 23 -417 23 -432 0 -398 -8 -364 83 27 72 79 130 145 163 50 24 64 26
139 22 62 -3 92 -10 116 -25 l33 -21 59 63 c138 148 316 195 503 133z m941
-296 c26 -21 44 -54 44 -81 0 -12 4 -21 9 -21 13 0 81 -65 81 -78 0 -14 -102
-21 -245 -18 -119 2 -165 13 -165 40 0 12 40 36 60 36 24 0 110 65 121 91 20
49 58 62 95 31z m-655 -467 c101 -36 160 -120 161 -230 0 -80 -25 -137 -85
-192 -155 -143 -407 -26 -407 190 0 177 162 291 331 232z m124 -1944 c3 -5 1
-12 -5 -16 -5 -3 -10 1 -10 9 0 18 6 21 15 7z m-95 -22 c7 -11 9 -23 6 -26 -8
-9 -36 17 -36 33 0 21 18 17 30 -7z m145 -29 c0 -22 -29 -18 -33 3 -3 14 1 18
15 15 10 -2 18 -10 18 -18z m618 -238 c22 -24 36 -96 35 -178 -1 -67 -11 -99
-29 -88 -12 7 -11 51 1 59 19 12 3 176 -20 199 -26 26 -63 -59 -78 -179 -5
-43 -11 -60 -22 -60 -21 0 -24 29 -5 48 8 9 15 29 15 44 0 67 49 173 79 173 4
0 15 -8 24 -18z m155 -2 c29 -31 70 -192 45 -177 -6 4 -13 27 -16 52 -8 54
-42 125 -61 125 -19 0 -36 -53 -36 -111 0 -26 -5 -51 -11 -55 -18 -11 -5 115
15 154 19 37 37 40 64 12z m-5651 -112 c-2 -13 -4 -3 -4 22 0 25 2 35 4 23 2
-13 2 -33 0 -45z m5186 -341 c3 -8 1 -20 -4 -28 -11 -19 -34 3 -26 25 8 20 23
21 30 3z m-625 -592 c4 -3 -33 -5 -81 -3 -48 1 -87 6 -87 10 0 9 159 2 168 -7z
m1327 -75 c3 -5 -1 -10 -10 -10 -9 0 -13 5 -10 10 3 6 8 10 10 10 2 0 7 -4 10
-10z m-6795 -134 c0 -3 -4 -8 -10 -11 -5 -3 -10 -1 -10 4 0 6 5 11 10 11 6 0
10 -2 10 -4z m-40 -115 c0 -4 -7 -8 -15 -8 -16 0 -20 9 -9 20 8 8 24 -1 24
-12z m30 -195 c0 -2 -7 -9 -15 -16 -13 -11 -14 -10 -9 4 5 14 24 23 24 12z
m20 -68 c0 -18 -2 -20 -9 -8 -6 8 -7 18 -5 22 9 14 14 9 14 -14z m25 -88 c3
-6 -1 -7 -9 -4 -18 7 -21 14 -7 14 6 0 13 -4 16 -10z m6262 -62 c-3 -8 -6 -5
-6 6 -1 11 2 17 5 13 3 -3 4 -12 1 -19z"/>
<path d="M2577 4493 c-12 -11 -8 -43 6 -43 7 0 23 7 36 16 18 13 20 18 10 25
-17 10 -43 12 -52 2z"/>
<path d="M7244 3906 c12 -10 17 -23 13 -36 -3 -11 -1 -18 4 -14 17 10 9 43
-13 54 -22 10 -22 10 -4 -4z"/>
<path d="M7542 3911 c-8 -5 -12 -21 -10 -37 2 -23 8 -29 28 -31 14 -1 18 0 8
3 -20 6 -25 24 -7 24 8 0 8 4 0 14 -10 11 -8 17 6 25 14 8 14 10 3 11 -8 0
-21 -4 -28 -9z"/>
<path d="M7193 3894 c-8 -22 9 -48 33 -51 14 -2 12 0 -5 7 -18 8 -22 16 -19
35 6 28 1 33 -9 9z"/>
<path d="M7283 3878 c-1 -18 1 -25 4 -15 6 21 21 22 45 0 17 -15 18 -14 17 18
-1 29 -2 30 -8 11 l-6 -24 -19 21 c-26 29 -32 27 -33 -11z"/>
<path d="M7372 3877 c-2 -37 -1 -38 31 -35 28 3 32 7 35 36 2 19 -1 32 -8 32
-6 0 -8 -5 -5 -10 11 -18 -6 -50 -25 -50 -14 0 -20 9 -23 33 -4 31 -4 31 -5
-6z"/>
<path d="M7451 3873 c1 -24 3 -29 6 -15 5 27 11 28 40 0 l23 -21 -1 39 c-1 21
-3 31 -6 22 -6 -22 -17 -23 -33 -3 -21 25 -30 17 -29 -22z"/>
<path d="M7193 3784 c-4 -11 2 -23 17 -34 15 -11 19 -19 11 -24 -6 -4 -15 -4
-21 -1 -5 3 -10 1 -10 -4 0 -17 40 -13 47 4 3 9 -2 24 -11 34 -20 22 -21 35
-1 27 8 -3 15 -1 15 4 0 17 -40 11 -47 -6z"/>
<path d="M7263 3789 c11 -6 17 -22 17 -45 0 -19 4 -33 9 -30 5 3 8 20 7 37 -2
23 3 33 18 39 16 7 10 9 -24 9 -35 0 -41 -2 -27 -10z"/>
<path d="M7346 3784 c-9 -8 -16 -21 -16 -28 0 -19 34 -46 58 -46 19 0 52 33
52 52 0 15 -33 38 -55 38 -13 0 -31 -7 -39 -16z m68 -16 c15 -25 -17 -57 -42
-42 -22 14 -28 44 -10 55 18 12 39 7 52 -13z"/>
<path d="M7450 3755 c0 -25 5 -45 10 -45 6 0 10 7 10 15 0 8 4 15 9 15 5 0 11
-7 15 -15 3 -8 11 -15 17 -15 7 0 6 9 -5 24 -9 15 -12 27 -6 31 17 10 -2 35
-26 35 -22 0 -24 -4 -24 -45z m35 26 c3 -5 1 -12 -5 -16 -5 -3 -10 1 -10 9 0
18 6 21 15 7z"/>
<path d="M7530 3755 c0 -44 0 -45 33 -44 23 1 26 3 10 6 -27 5 -31 30 -5 36
16 4 16 5 0 6 -26 2 -22 29 5 34 16 3 13 5 -10 6 -33 1 -33 0 -33 -44z"/>
<path d="M3091 4046 c-16 -19 -6 -36 20 -36 22 0 24 9 6 34 -12 16 -14 16 -26
2z"/>
<path d="M6640 4035 c0 -18 5 -25 20 -25 11 0 20 3 20 8 0 4 -9 15 -20 25 -19
16 -20 16 -20 -8z"/>
<path d="M3446 3661 c-20 -62 -33 -221 -18 -221 6 0 13 -8 15 -17 3 -13 5 -12
6 5 1 14 5 21 12 16 6 -3 9 -17 6 -30 -2 -13 0 -21 4 -18 19 11 8 -48 -12 -69
-20 -22 -21 -26 -14 -367 4 -190 8 -346 10 -348 1 -1 5 152 8 340 4 188 9 343
11 345 2 2 21 -5 42 -16 21 -12 33 -21 26 -21 -7 0 -3 -9 8 -20 12 -12 18 -25
15 -30 -4 -6 1 -7 11 -3 11 4 15 3 10 -5 -4 -7 1 -9 14 -6 11 2 29 6 39 8 11
3 31 15 45 27 22 19 26 31 26 73 0 28 4 57 9 64 6 10 44 12 163 10 86 -2 154
0 152 3 -2 4 10 9 26 11 16 3 31 0 33 -6 2 -6 15 -3 33 9 16 10 40 18 53 16
13 -1 43 3 67 9 41 12 44 15 44 46 l0 34 -80 0 -80 0 0 -29 c0 -58 -76 -89
-139 -56 -30 15 -41 33 -41 66 0 17 -8 19 -75 19 l-75 0 0 -28 c0 -43 -33 -67
-92 -67 -40 0 -53 5 -69 24 -10 13 -19 34 -19 47 0 24 -2 24 -95 24 -57 0 -95
4 -95 10 0 6 8 10 18 10 15 0 17 8 16 58 -1 31 0 69 3 85 5 27 6 27 79 27 43
0 74 4 74 10 0 6 -33 10 -79 10 l-79 0 -16 -49z"/>
<path d="M3843 3703 c20 -2 54 -2 75 0 20 2 3 4 -38 4 -41 0 -58 -2 -37 -4z"/>
<path d="M4178 3703 c17 -2 47 -2 65 0 17 2 3 4 -33 4 -36 0 -50 -2 -32 -4z"/>
<path d="M5658 3703 c17 -2 47 -2 65 0 17 2 3 4 -33 4 -36 0 -50 -2 -32 -4z"/>
<path d="M5983 3703 c20 -2 54 -2 75 0 20 2 3 4 -38 4 -41 0 -58 -2 -37 -4z"/>
<path d="M6280 3701 c0 -4 34 -9 75 -10 47 -1 75 2 75 8 0 7 -29 11 -75 11
-41 0 -75 -4 -75 -9z"/>
<path d="M3480 3530 c0 -6 30 -10 70 -10 91 0 91 14 0 18 -42 1 -70 -2 -70 -8z"/>
<path d="M4525 3474 c5 -52 38 -64 136 -53 31 3 36 7 28 21 -5 9 -9 26 -9 37
0 19 -6 21 -79 21 l-79 0 3 -26z"/>
<path d="M4860 3473 c0 -32 -7 -45 -35 -62 l-20 -13 20 8 c11 3 29 6 40 5 50
-5 74 -4 116 8 43 12 45 14 41 47 l-4 34 -79 0 -79 0 0 -27z"/>
<path d="M5200 3481 c0 -11 -2 -26 -6 -34 -8 -23 69 -39 115 -24 28 10 37 18
42 45 l6 32 -78 0 c-71 0 -79 -2 -79 -19z"/>
<path d="M5610 3469 c0 -25 6 -32 37 -45 63 -27 123 -4 123 47 l0 29 -80 0
-80 0 0 -31z"/>
<path d="M5950 3479 c0 -11 -4 -28 -9 -38 -7 -12 -5 -17 7 -19 9 -1 37 -5 61
-8 60 -9 91 9 91 53 l0 33 -75 0 c-69 0 -75 -2 -75 -21z"/>
<path d="M6280 3471 c0 -16 6 -33 13 -38 40 -33 130 -20 141 20 12 46 10 47
-74 47 l-80 0 0 -29z"/>
<path d="M5047 3409 c7 -7 15 -10 18 -7 3 3 -2 9 -12 12 -14 6 -15 5 -6 -5z"/>
<path d="M4763 3393 c9 -2 23 -2 30 0 6 3 -1 5 -18 5 -16 0 -22 -2 -12 -5z"/>
<path d="M4858 3360 c-3 -11 -42 -17 -140 -22 -15 -1 -25 -5 -22 -10 5 -8 247
-9 302 0 54 7 24 22 -32 16 -41 -5 -56 -3 -69 11 -12 12 -17 13 -17 3 0 -10
-2 -10 -9 1 -6 10 -10 10 -13 1z"/>
<path d="M5780 3329 c0 -5 9 -9 20 -9 11 0 20 2 20 4 0 2 -9 6 -20 9 -11 3
-20 1 -20 -4z"/>
<path d="M3760 3319 c0 -7 8 -18 18 -26 15 -13 15 -13 -8 -7 -20 5 -23 4 -13
-6 18 -19 41 -5 41 24 0 19 -6 26 -19 26 -11 0 -19 -5 -19 -11z"/>
<path d="M3821 3299 c-10 -28 -9 -30 6 -18 13 11 17 11 20 2 3 -7 9 -13 14
-13 5 0 3 14 -6 30 -9 17 -17 30 -19 30 -2 0 -9 -14 -15 -31z"/>
<path d="M3881 3303 c-1 -28 2 -33 22 -32 15 1 17 3 5 6 -9 2 -19 16 -21 31
-4 24 -4 24 -6 -5z"/>
<path d="M3932 3303 c2 -22 9 -28 28 -30 22 -1 22 -1 3 4 -27 5 -31 23 -5 24
14 0 14 2 -3 8 -19 8 -18 9 5 13 24 5 24 5 -3 7 -25 1 -28 -2 -25 -26z"/>
<path d="M5883 3314 c-3 -8 2 -23 11 -32 13 -13 18 -14 28 -3 11 10 10 11 -4
6 -12 -5 -20 -1 -24 9 -9 24 4 32 26 18 16 -10 18 -9 14 3 -8 20 -43 19 -51
-1z"/>
<path d="M5970 3320 c20 -13 33 -13 25 0 -3 6 -14 10 -23 10 -15 0 -15 -2 -2
-10z"/>
<path d="M6020 3300 c0 -25 4 -30 23 -29 16 1 18 2 5 6 -10 2 -18 8 -18 13 0
5 8 11 18 13 14 4 14 5 -3 7 l-20 1 20 9 c19 8 19 9 -2 9 -19 1 -23 -4 -23
-29z"/>
<path d="M6080 3299 c0 -23 3 -30 9 -20 5 7 14 10 20 7 19 -12 12 10 -9 29
-20 18 -20 17 -20 -16z"/>
<path d="M5961 3294 c0 -11 3 -14 6 -6 3 7 2 16 -1 19 -3 4 -6 -2 -5 -13z"/>
<path d="M4002 2959 c2 -7 10 -15 17 -17 8 -3 12 1 9 9 -2 7 -10 15 -17 17 -8
3 -12 -1 -9 -9z"/>
<path d="M4080 2961 c0 -5 5 -13 10 -16 6 -3 10 -2 10 4 0 5 -4 13 -10 16 -5
3 -10 2 -10 -4z"/>
<path d="M4150 2961 c0 -5 5 -13 10 -16 6 -3 10 -2 10 4 0 5 -4 13 -10 16 -5
3 -10 2 -10 -4z"/>
<path d="M4820 2887 c0 -18 21 -27 58 -26 24 0 25 1 7 8 l-20 8 20 5 c16 5 15
6 -7 7 -14 0 -33 4 -42 7 -10 4 -16 1 -16 -9z"/>
<path d="M3790 2835 c0 -10 -14 -17 -40 -21 -35 -6 -41 -11 -51 -44 -8 -28 -8
-43 0 -59 10 -19 9 -21 -11 -22 -55 -3 41 -17 123 -18 128 -2 147 4 155 47 10
52 -5 85 -43 93 -18 3 -44 14 -57 23 -32 20 -76 21 -76 1z"/>
<path d="M4800 2765 c0 -11 12 -15 45 -15 52 0 60 14 14 24 -47 9 -59 7 -59
-9z"/>
<path d="M3640 2620 c-17 -17 -20 -33 -20 -100 l0 -80 40 0 c22 0 40 4 40 9 0
5 -6 9 -12 8 -42 -1 -51 3 -38 18 9 10 9 15 1 15 -6 0 -11 7 -11 15 0 10 9 14
25 13 16 -2 24 -7 21 -15 -3 -7 -1 -15 4 -18 6 -4 10 22 10 64 0 60 -3 72 -20
81 -15 8 -24 6 -40 -10z"/>
<path d="M3551 2585 c-1 -12 -5 -25 -9 -30 -24 -29 -67 -209 -60 -254 4 -25 2
-29 -10 -19 -11 10 -13 8 -11 -7 2 -11 1 -24 -3 -30 -3 -5 -9 -26 -12 -45 -6
-27 -5 -32 4 -20 10 12 11 11 7 -7 -4 -19 0 -22 50 -25 30 -1 57 -1 59 1 8 8
2 406 -6 431 -7 21 -8 22 -9 5z m-80 -378 c-10 -9 -11 -8 -5 6 3 10 9 15 12
12 3 -3 0 -11 -7 -18z"/>
<path d="M3450 2570 c0 -5 5 -10 11 -10 5 0 7 5 4 10 -3 6 -8 10 -11 10 -2 0
-4 -4 -4 -10z"/>
<path d="M2882 2535 c0 -16 2 -22 5 -12 2 9 2 23 0 30 -3 6 -5 -1 -5 -18z"/>
<path d="M5841 2446 c-13 -15 -24 -164 -13 -169 4 -2 21 0 37 4 l30 7 -29 1
c-21 1 -27 5 -22 16 3 8 1 15 -4 15 -6 0 -10 7 -10 15 0 10 9 14 25 13 16 -2
24 -7 21 -15 -3 -7 -1 -13 4 -13 14 0 12 114 -2 128 -16 16 -23 15 -37 -2z"/>
<path d="M2871 2424 c0 -11 3 -14 6 -6 3 7 2 16 -1 19 -3 4 -6 -2 -5 -13z"/>
<path d="M3966 2422 c-3 -3 -6 -63 -6 -134 l0 -128 35 0 c31 0 35 3 35 28 l1
27 14 -25 c12 -22 21 -26 70 -28 33 -1 64 3 72 9 10 9 20 9 39 1 20 -10 26 -9
31 4 10 27 -14 64 -42 64 -25 0 -25 0 -25 90 l0 90 -92 1 c-51 0 -101 2 -110
4 -9 2 -19 0 -22 -3z m121 -34 c-3 -8 -6 -5 -6 6 -1 11 2 17 5 13 3 -3 4 -12
1 -19z m87 -179 c-3 -5 -10 -7 -15 -3 -5 3 -7 10 -3 15 3 5 10 7 15 3 5 -3 7
-10 3 -15z"/>
<path d="M3458 2378 c-2 -7 -1 -29 3 -48 6 -34 6 -33 8 13 1 46 -3 59 -11 35z"/>
<path d="M6895 2322 c-3 -3 -5 -70 -5 -148 l0 -143 33 -5 c75 -12 177 -26 191
-26 12 0 16 10 16 39 0 34 -3 39 -32 49 -31 9 -29 10 28 11 l62 1 17 53 c9 28
28 64 42 79 23 24 32 27 77 24 40 -3 55 -9 74 -31 l23 -27 -7 28 c-3 16 -21
45 -40 64 l-34 34 -220 1 c-121 1 -222 -1 -225 -3z"/>
<path d="M2867 2303 c-4 -3 -7 -16 -6 -27 0 -19 1 -19 10 3 10 24 8 36 -4 24z"/>
<path d="M7262 2233 c-15 -6 -37 -46 -50 -95 -10 -37 -10 -38 18 -38 24 0 29
5 35 38 3 20 15 52 25 70 18 29 18 32 2 31 -9 0 -23 -3 -30 -6z"/>
<path d="M7350 2203 c11 -21 20 -51 19 -68 -1 -25 -3 -22 -14 19 -22 80 -46
86 -65 18 -19 -71 -18 -72 65 -72 65 0 75 2 75 18 -1 29 -37 100 -58 111 -36
19 -42 12 -22 -26z"/>
<path d="M2239 2176 c-29 -67 -34 -124 -15 -189 9 -31 20 -58 24 -61 5 -3 0
21 -11 52 -22 66 -19 128 12 197 11 25 18 45 15 45 -3 0 -14 -20 -25 -44z"/>
<path d="M3415 2110 c-7 -12 2 -30 16 -30 5 0 9 9 9 20 0 21 -15 27 -25 10z"/>
<path d="M3551 2106 c-12 -14 -5 -26 16 -26 15 0 18 26 4 34 -5 3 -14 0 -20
-8z"/>
<path d="M5746 2084 c-10 -26 -7 -114 4 -114 6 0 10 9 10 20 0 28 13 25 40
-10 25 -32 45 -36 133 -24 53 8 54 27 1 44 -19 6 -34 15 -34 20 0 5 -15 25
-34 44 -27 30 -40 36 -74 36 -27 0 -42 -5 -46 -16z"/>
<path d="M3785 1998 c-4 -35 -2 -108 3 -163 l9 -100 2 163 c0 89 -1 162 -3
162 -3 0 -7 -28 -11 -62z"/>
<path d="M2320 2027 c0 -21 43 -67 62 -66 7 0 3 5 -9 11 -12 6 -29 25 -37 42
-10 20 -16 25 -16 13z"/>
<path d="M4614 1995 c-3 -8 -21 -20 -40 -27 l-34 -12 0 -108 0 -108 25 0 c25
0 25 1 25 85 0 50 4 85 10 85 6 0 10 -35 10 -85 0 -69 3 -85 15 -85 12 0 15
16 15 86 0 63 3 85 12 82 9 -3 13 -31 13 -89 l0 -84 113 -3 113 -3 -3 113 -3
113 -110 0 c-99 0 -110 -2 -109 -17 1 -10 -5 -18 -13 -18 -11 0 -14 7 -11 24
4 19 1 22 -14 18 -10 -2 -18 -13 -18 -23 0 -11 -4 -19 -10 -19 -5 0 -10 11
-10 25 0 14 4 25 10 25 5 0 14 9 20 20 6 11 8 20 5 20 -3 0 -8 -7 -11 -15z"/>
<path d="M6896 1993 c-3 -4 -6 -19 -6 -35 0 -28 1 -28 63 -28 60 0 63 1 62 25
-1 14 -3 27 -6 29 -8 7 -107 15 -113 9z"/>
<path d="M2520 1945 c0 -41 -3 -42 -37 -15 -14 11 -31 20 -37 20 -6 0 -2 -6 9
-12 11 -6 32 -21 46 -35 l26 -24 2 51 c1 27 -1 50 -4 50 -3 0 -5 -16 -5 -35z"/>
<path d="M7030 1956 c0 -19 5 -26 20 -26 11 0 20 -4 20 -10 0 -5 -9 -10 -20
-10 -18 0 -20 -7 -20 -69 0 -64 2 -70 23 -74 l22 -4 -22 -8 c-15 -5 -23 -15
-23 -30 0 -20 6 -24 43 -27 23 -3 43 -4 45 -2 2 1 6 63 9 138 l6 136 -29 0
c-16 0 -39 3 -51 6 -20 5 -23 2 -23 -20z m57 -231 c-3 -11 -5 -3 -6 18 0 20
-5 37 -11 37 -12 0 -13 34 -3 81 6 30 8 24 15 -41 5 -41 7 -84 5 -95z"/>
<path d="M5012 1963 c-6 -3 -9 -10 -5 -16 4 -7 0 -8 -13 -4 -18 7 -18 7 0 -8
18 -14 15 -15 -37 -15 -31 0 -57 -4 -57 -10 0 -6 28 -10 63 -10 34 0 58 -4 52
-8 -5 -4 -11 -18 -12 -32 -1 -14 -4 -42 -7 -62 -4 -26 -2 -38 7 -39 6 -1 -4
-5 -23 -9 -30 -7 -27 -8 20 -6 l55 1 3 106 c2 95 1 107 -15 111 -10 3 -24 3
-31 1z"/>
<path d="M7331 1938 c-7 -16 -9 -30 -10 -107 -1 -74 -2 -80 -23 -83 -18 -2
-24 -11 -26 -34 -3 -28 0 -32 29 -38 18 -3 34 -4 36 -2 2 2 2 64 0 137 -1 74
-4 131 -6 127z"/>
<path d="M7356 1853 c-3 -42 -6 -100 -6 -130 l0 -53 44 0 c29 0 46 5 49 15 4
8 9 60 13 116 5 76 4 100 -4 95 -7 -4 -12 -1 -12 7 0 17 -21 27 -54 27 -21 0
-24 -6 -30 -77z"/>
<path d="M7998 1922 c-12 -2 -18 -13 -18 -33 0 -36 27 -40 36 -4 8 32 3 42
-18 37z"/>
<path d="M5595 1904 c45 -7 326 -10 309 -3 -11 4 -89 7 -174 7 -85 0 -146 -2
-135 -4z"/>
<path d="M6894 1849 c3 -33 8 -65 12 -70 3 -5 27 -9 54 -9 l48 0 4 70 3 70
-64 0 -64 0 7 -61z"/>
<path d="M7508 1883 c-4 -32 -4 -33 34 -33 35 0 38 2 38 29 0 24 -4 29 -20 26
-11 -2 -24 -6 -29 -9 -5 -4 -11 0 -14 6 -2 7 -6 -2 -9 -19z"/>
<path d="M7975 1826 c-2 -6 -5 -30 -7 -53 -3 -36 -1 -43 14 -43 10 0 18 7 18
18 0 9 3 33 6 53 5 29 3 36 -11 36 -9 0 -18 -5 -20 -11z"/>
<path d="M7496 1798 c-14 -85 -15 -83 29 -83 l40 0 3 58 3 57 -35 0 c-32 0
-36 -3 -40 -32z"/>
<path d="M6949 1753 c-30 -3 -36 -8 -32 -23 5 -19 31 -30 76 -30 24 0 27 3 24
28 -4 29 -11 31 -68 25z"/>
<path d="M3010 1683 c0 -20 3 -34 6 -30 9 9 11 67 2 67 -4 0 -8 -16 -8 -37z"/>
<path d="M7477 1668 c-2 -18 -3 -34 -2 -36 6 -6 113 -3 190 5 l80 9 -74 9
c-50 5 -80 14 -92 26 -12 12 -33 19 -58 19 -36 0 -39 -2 -44 -32z"/>
<path d="M7955 1690 c3 -5 13 -10 21 -10 8 0 14 5 14 10 0 6 -9 10 -21 10 -11
0 -17 -4 -14 -10z"/>
<path d="M6930 1673 c1 -51 11 -64 49 -61 34 3 36 5 36 38 0 34 -1 35 -42 38
-36 3 -43 0 -43 -15z"/>
<path d="M7030 1651 c0 -18 7 -31 18 -36 16 -6 16 -7 0 -19 -14 -10 -18 -28
-18 -79 0 -43 4 -67 13 -70 10 -4 10 -6 0 -6 -7 -1 -13 -12 -13 -26 0 -23 4
-25 45 -25 l45 0 0 144 0 143 -45 1 c-43 1 -45 0 -45 -27z"/>
<path d="M7270 1660 c0 -12 33 -30 54 -30 24 0 19 27 -6 34 -33 8 -48 7 -48
-4z"/>
<path d="M7856 1654 c-8 -22 -8 -64 2 -64 37 1 52 14 52 46 0 29 -3 34 -24 34
-13 0 -27 -7 -30 -16z"/>
<path d="M7930 1635 c0 -32 2 -35 30 -35 28 0 30 3 30 35 0 32 -2 35 -30 35
-28 0 -30 -3 -30 -35z"/>
<path d="M7350 1646 c0 -12 11 -16 46 -16 59 0 55 24 -4 28 -33 2 -42 0 -42
-12z"/>
<path d="M6950 1589 c0 -7 5 -41 11 -76 10 -57 13 -63 35 -63 24 0 25 1 22 73
l-3 72 -32 3 c-21 2 -33 -1 -33 -9z"/>
<path d="M7263 1545 c0 -27 2 -38 4 -22 2 15 2 37 0 50 -2 12 -4 0 -4 -28z"/>
<path d="M7892 1573 c-17 -7 -42 -57 -42 -86 0 -20 4 -23 30 -19 29 4 30 6 30
58 0 30 -1 54 -2 53 -2 0 -9 -3 -16 -6z"/>
<path d="M7953 1572 c-19 -3 -21 -7 -13 -28 6 -14 10 -36 10 -50 0 -44 18 -25
25 27 4 27 5 51 4 53 -2 1 -14 0 -26 -2z"/>
<path d="M7143 1450 c0 -36 2 -50 4 -32 2 17 2 47 0 65 -2 17 -4 3 -4 -33z"/>
<path d="M7931 1484 c0 -11 3 -14 6 -6 3 7 2 16 -1 19 -3 4 -6 -2 -5 -13z"/>
<path d="M7850 1430 c0 -16 7 -20 30 -20 23 0 30 4 30 20 0 16 -7 20 -30 20
-23 0 -30 -4 -30 -20z"/>
<path d="M7927 1430 c-3 -11 -1 -20 4 -20 5 0 9 9 9 20 0 11 -2 20 -4 20 -2 0
-6 -9 -9 -20z"/>
<path d="M7950 1430 c0 -11 4 -20 9 -20 6 0 9 9 8 20 -1 11 -5 20 -9 20 -4 0
-8 -9 -8 -20z"/>
<path d="M6982 1418 c5 -32 28 -35 28 -4 0 17 -5 26 -16 26 -10 0 -14 -7 -12
-22z"/>
<path d="M7320 1349 c-96 -3 -209 -7 -251 -8 l-75 -1 -45 -62 c-64 -89 -71
-105 -71 -154 0 -62 22 -92 69 -96 52 -4 535 11 541 17 3 2 -1 12 -8 21 -8 9
-14 41 -14 78 0 57 4 68 47 134 26 40 47 75 47 77 0 3 -15 4 -32 3 -18 -1
-112 -5 -208 -9z"/>
<path d="M2418 1162 c-3 -35 -1 -42 14 -42 22 0 22 8 4 51 l-14 32 -4 -41z"/>
<path d="M2188 1113 c12 -2 32 -2 45 0 12 2 2 4 -23 4 -25 0 -35 -2 -22 -4z"/>
<path d="M2088 1103 c12 -2 30 -2 40 0 9 3 -1 5 -23 4 -22 0 -30 -2 -17 -4z"/>
<path d="M1978 1093 c12 -2 32 -2 45 0 12 2 2 4 -23 4 -25 0 -35 -2 -22 -4z"/>
<path d="M2274 1011 c-2 -2 -4 -13 -4 -23 0 -13 8 -18 30 -18 17 0 30 4 30 9
0 5 21 13 48 18 l47 10 -73 4 c-41 2 -76 2 -78 0z"/>
<path d="M7260 1011 l-115 -6 145 -18 c80 -9 150 -17 156 -17 6 0 16 11 22 25
l12 25 -53 -2 c-28 -1 -104 -4 -167 -7z"/>
<path d="M7600 1003 c1 -28 30 -32 190 -24 l65 4 -65 8 c-135 16 -190 19 -190
12z"/>
<path d="M2275 770 c3 -5 13 -10 21 -10 8 0 14 5 14 10 0 6 -9 10 -21 10 -11
0 -17 -4 -14 -10z"/>
<path d="M8575 500 c-3 -6 1 -7 9 -4 18 7 21 14 7 14 -6 0 -13 -4 -16 -10z"/>
<path d="M8316 364 c-18 -18 -20 -24 -6 -24 5 0 14 9 20 20 13 24 7 26 -14 4z"/>
<path d="M8475 370 c3 -5 8 -10 11 -10 2 0 4 5 4 10 0 6 -5 10 -11 10 -5 0 -7
-4 -4 -10z"/>
<path d="M8208 268 c14 -14 45 -20 37 -8 -2 4 -14 10 -26 13 -16 4 -19 3 -11
-5z"/>
<path d="M8120 80 c0 -6 7 -10 15 -10 8 0 15 2 15 4 0 2 -7 6 -15 10 -8 3 -15
1 -15 -4z"/>
<path d="M1917 35 c2 -7 13 -11 24 -8 25 7 24 10 -5 15 -16 3 -23 1 -19 -7z"/>
</g>
</svg>
